<svg width="40" height="40" viewBox="0 0 40 40" fill="none" xmlns="http://www.w3.org/2000/svg">
<g clip-path="url(#clip0_442:2221)">
<path d="M10.4346 36.9356L11.1747 37.4087C13.6003 38.5204 16.2978 39.1409 19.1405 39.1409C22.3639 39.1409 25.4003 38.3429 28.0653 36.9355H10.4346V36.9356Z" fill="#1C2E7A"/>
<path d="M6.71367 34.5573L7.21484 34.8776H31.182C35.5123 31.3684 38.2812 26.008 38.2812 19.9999C38.2812 9.42874 29.7116 0.859131 19.1404 0.859131C16.2977 0.859131 13.6002 1.47968 11.1746 2.59132L3.12305 30.4806C4.12234 32.0047 5.33289 33.3775 6.71367 34.5573Z" fill="#FFDD40"/>
<path d="M27.636 2.59155H11.1751C4.58086 5.6139 0 12.2717 0 20.0001C0 21.9051 0.279609 23.7445 0.797812 25.4811H13.6288V23.5964C13.6288 22.9966 14.0966 22.485 14.694 22.4316L14.8007 22.422V19.7858C14.8007 18.8398 15.5703 18.0702 16.5163 18.0702H30.3035V5.25913C30.3035 3.78819 29.1069 2.59155 27.636 2.59155Z" fill="#167CC1"/>
<path d="M1.6377 12.2448C2.43137 12.8638 3.15113 13.6307 3.78379 14.5537C7.67441 20.2308 11.3597 19.14 15.0236 18.9419C15.3186 18.4218 15.8771 18.0698 16.5165 18.0698H28.585V6.97363H5.11809C3.68496 8.51582 2.50309 10.2943 1.6377 12.2448Z" fill="#73C3F9"/>
<path d="M7.56418 6.97388H5.11816C3.68496 8.51599 2.50316 10.2945 1.6377 12.245C2.43137 12.864 3.15113 13.6308 3.78379 14.5539C5.06395 16.4218 6.32191 17.557 7.56418 18.2324V6.97388Z" fill="#4FABF7"/>
<path d="M18.9141 10.2987C22.4312 14.6033 25.5755 15.6693 28.5848 15.6832V6.97363H15.0078C16.4377 7.76988 17.749 8.8727 18.9141 10.2987Z" fill="#9BD8F9"/>
<path d="M27.6353 4.3103H8.17566C7.00527 5.12976 5.93004 6.07585 4.97168 7.1303H28.584V5.25913C28.584 4.74483 28.1496 4.3103 27.6353 4.3103Z" fill="#2A428C"/>
<path d="M7.56316 6.06661C7.56316 5.50825 7.68832 4.97794 7.91066 4.50122C6.84301 5.27591 5.85699 6.15606 4.97168 7.1302H7.56316V6.06661Z" fill="#1C2E7A"/>
<path d="M5.76953 6.30591H19.5955C19.9191 6.30591 20.1814 6.04356 20.1814 5.71997C20.1814 5.39638 19.9191 5.13403 19.5955 5.13403H7.08453C6.62828 5.50458 6.18961 5.89567 5.76953 6.30591Z" fill="#3C58A0"/>
<path d="M26.3711 6.30591H25.6074C25.2838 6.30591 25.0215 6.04356 25.0215 5.71997C25.0215 5.39638 25.2838 5.13403 25.6074 5.13403H26.3711C26.6947 5.13403 26.957 5.39638 26.957 5.71997C26.957 6.04356 26.6948 6.30591 26.3711 6.30591Z" fill="#3C58A0"/>
<path d="M23.7149 6.30591H22.9512C22.6276 6.30591 22.3652 6.04356 22.3652 5.71997C22.3652 5.39638 22.6276 5.13403 22.9512 5.13403H23.7149C24.0385 5.13403 24.3009 5.39638 24.3009 5.71997C24.3009 6.04356 24.0385 6.30591 23.7149 6.30591Z" fill="#3C58A0"/>
<path d="M24.5414 9.78613H17.4092V11.8397H24.5414C25.1085 11.8397 25.5682 11.38 25.5682 10.8129C25.5682 10.2458 25.1085 9.78613 24.5414 9.78613Z" fill="#E9EFFF"/>
<path d="M20.6907 10.8129C20.6907 10.2458 21.1503 9.78613 21.7174 9.78613H17.4092V11.8397H21.7174C21.1503 11.8397 20.6907 11.38 20.6907 10.8129Z" fill="#D3DCFB"/>
<path d="M17.4869 9.78613H16.3344C15.7673 9.78613 15.3076 10.2458 15.3076 10.8129C15.3076 11.38 15.7673 11.8397 16.3344 11.8397H17.4869V9.78613Z" fill="#3C58A0"/>
<path d="M3.91234 14.4657C3.23734 13.4808 2.4907 12.7035 1.70391 12.095C0.609688 14.5047 0 17.1811 0 20C0 21.905 0.279609 23.7444 0.797812 25.481H13.6288V23.5963C13.6288 22.9965 14.0966 22.4849 14.694 22.4315L14.8007 22.4219V19.7857C14.8007 19.4101 14.9223 19.0626 15.1277 18.7798C11.4137 18.9643 7.80062 20.1393 3.91234 14.4657Z" fill="#4FABF7"/>
<path d="M7.56391 18.0595C6.36656 17.3891 5.15352 16.2767 3.91234 14.4657C3.23734 13.4808 2.4907 12.7035 1.70391 12.095C0.609688 14.5047 0 17.1811 0 20C0 21.905 0.279609 23.7443 0.797812 25.4809H7.56391V18.0595Z" fill="#1E9EF4"/>
<path d="M13.6286 36.1212V30.3245H7.40793L6.97473 33.557C6.92426 33.9334 6.8302 34.2658 6.71387 34.5574C8.05371 35.7023 9.55324 36.6654 11.1748 37.4086H14.8792V37.2914H14.7988C14.1536 37.2914 13.6286 36.7665 13.6286 36.1212Z" fill="#D3DCFB"/>
<path d="M13.6295 36.1212V30.3245H9.78156L9.65258 30.4807C9.65258 30.4807 10.7973 31.094 10.7973 32.2659C10.7973 33.4377 10.7973 34.7521 10.7973 34.7521C10.7973 34.7521 10.8238 36.364 9.46094 36.5142C10.0153 36.8399 10.5873 37.1389 11.1757 37.4085H14.8801V37.2913H14.7997C14.1544 37.2914 13.6295 36.7665 13.6295 36.1212Z" fill="#BEC8F7"/>
<path d="M3.12309 30.4807H13.6285V25.3247H0.750977C1.28551 27.174 2.09168 28.9078 3.12309 30.4807Z" fill="#E9EFFF"/>
<path d="M7.56355 27.1348V25.3247H0.750977C1.28551 27.174 2.09168 28.9077 3.12309 30.4807H9.6516C8.41762 29.8707 7.56355 28.5979 7.56355 27.1348Z" fill="#D3DCFB"/>
<path d="M11.0562 29.0525C11.6913 29.0525 12.2061 28.5377 12.2061 27.9026C12.2061 27.2675 11.6913 26.7527 11.0562 26.7527C10.4211 26.7527 9.90625 27.2675 9.90625 27.9026C9.90625 28.5377 10.4211 29.0525 11.0562 29.0525Z" fill="#BEC8F7"/>
<path d="M37.174 17.9526H16.5163C15.5084 17.9526 14.6836 18.7774 14.6836 19.7854V22.4708C14.7216 22.4669 14.7601 22.4649 14.7991 22.4649H20.8023C21.4259 22.4649 21.9334 22.9723 21.9334 23.596V34.7519H39.0048C39.0058 34.727 39.0066 34.7021 39.0066 34.677V19.7853C39.0067 18.7773 38.182 17.9526 37.174 17.9526Z" fill="#167CC1"/>
<path d="M28.5404 34.3905C27.6179 33.4947 27.9393 32.5066 28.2535 31.9504C28.3799 31.7266 28.2909 31.4398 28.0579 31.3313C26.9016 30.7933 27.0978 29.6873 27.2189 29.2749C27.2511 29.1654 27.2382 29.0477 27.1854 28.9466L26.0706 26.8091C26.0399 26.7503 25.9971 26.698 25.9432 26.6592C25.2306 26.1444 25.3725 25.3998 25.5361 24.9762C25.6075 24.7915 25.5439 24.5801 25.3839 24.4634C24.5966 23.8891 24.7809 23.0312 24.9485 22.5912C25.0124 22.4234 24.9706 22.2321 24.8384 22.1105C23.9271 21.2719 24.2039 20.387 24.4245 19.9644C24.5028 19.8144 24.4961 19.6317 24.3999 19.4926C24.0637 19.0061 24.2063 18.5399 24.3685 18.2504C24.4207 18.157 24.4381 18.0521 24.4224 17.9529H16.5154C15.5073 17.9529 14.6826 18.7776 14.6826 19.7856V22.4709C14.7206 22.4671 14.7592 22.4651 14.7981 22.4651H20.8012C21.4249 22.4651 21.9324 22.9725 21.9324 23.5962V34.7521H28.6707C28.684 34.6219 28.6406 34.4877 28.5404 34.3905Z" fill="#0E62A8"/>
<path d="M16.4414 22.1526V22.4651H20.8022C21.4259 22.4651 21.9334 22.9725 21.9334 23.5962V34.7521H36.891C37.0887 34.7521 37.2489 34.5919 37.2489 34.3942V22.1526H16.4414Z" fill="#FF4155"/>
<path d="M16.4414 22.4651H20.8022C21.4259 22.4651 21.9334 22.9725 21.9334 23.5962V34.7521H28.6717C28.6848 34.6219 28.6414 34.4877 28.5412 34.3905C27.6187 33.4947 27.9402 32.5066 28.2543 31.9504C28.3807 31.7266 28.2917 31.4398 28.0587 31.3313C26.9024 30.7933 27.0987 29.6873 27.2198 29.2749C27.252 29.1654 27.2391 29.0477 27.1862 28.9466L26.0714 26.8092C26.0407 26.7503 25.9979 26.6981 25.9441 26.6592C25.2314 26.1444 25.3734 25.3998 25.537 24.9762C25.6083 24.7915 25.5447 24.5801 25.3847 24.4634C24.5974 23.8891 24.7817 23.0312 24.9493 22.5913C25.0063 22.4416 24.9787 22.2735 24.8784 22.1526H16.4414V22.4651Z" fill="#E80054"/>
<path d="M39.3682 34.6738H21.9339V36.1209C21.9339 36.7447 21.4265 37.2521 20.8028 37.2521H20.4385V37.4084H37.8986C39.0595 37.4084 40.0006 36.4673 40.0006 35.3063C40.0007 34.957 39.7175 34.6738 39.3682 34.6738Z" fill="#E9EFFF"/>
<path d="M21.9339 36.1209C21.9339 36.7447 21.4265 37.2521 20.8028 37.2521H20.4385V37.4084H28.8136C28.7892 37.3541 28.7545 37.3044 28.7093 37.2633C27.7129 36.3575 28.1947 35.452 28.5743 34.9895C28.6496 34.8979 28.6817 34.7844 28.6734 34.6738H21.9339V36.1209H21.9339Z" fill="#D3DCFB"/>
<path d="M36.891 19.7104H16.7993C16.6016 19.7104 16.4414 19.8707 16.4414 20.0683V22.3086H37.2489V20.0683C37.2489 19.8707 37.0887 19.7104 36.891 19.7104Z" fill="#FF7186"/>
<path d="M24.4255 19.9641C24.4669 19.8849 24.4837 19.7967 24.477 19.7104H16.7993C16.6016 19.7104 16.4414 19.8707 16.4414 20.0683V22.3086H24.9604C24.9389 22.2341 24.8988 22.1649 24.8394 22.1102C23.928 21.2716 24.2048 20.3867 24.4255 19.9641Z" fill="#FF4155"/>
<path d="M20.8013 36.8227H14.7982C14.0883 36.8227 13.5107 36.2452 13.5107 35.5352V23.0103C13.5107 22.3004 14.0882 21.7229 14.7982 21.7229H20.8013C21.5111 21.7229 22.0887 22.3004 22.0887 23.0103V35.5352C22.0887 36.2452 21.5111 36.8227 20.8013 36.8227Z" fill="#FFDD40"/>
<path d="M18.2235 23.0097H18.8134V21.7229H14.7991C14.0893 21.7229 13.5117 22.3004 13.5117 23.0103V35.5352C13.5117 36.2452 14.0892 36.8227 14.7991 36.8227H18.2236C17.5137 36.8227 16.9362 36.2452 16.9362 35.5352V24.297C16.9361 23.5872 17.5136 23.0097 18.2235 23.0097Z" fill="#FFB332"/>
<path d="M15.7119 26.9465H15.4961C15.1725 26.9465 14.9102 26.6843 14.9102 26.3606C14.9102 26.0369 15.1725 25.7747 15.4961 25.7747H15.7119C16.0355 25.7747 16.2978 26.0369 16.2978 26.3606C16.2978 26.6842 16.0355 26.9465 15.7119 26.9465Z" fill="#FCF2C8"/>
<path d="M15.7119 29.1985H15.4961C15.1725 29.1985 14.9102 28.9361 14.9102 28.6125C14.9102 28.2889 15.1725 28.0266 15.4961 28.0266H15.7119C16.0355 28.0266 16.2978 28.2889 16.2978 28.6125C16.2978 28.9361 16.0355 29.1985 15.7119 29.1985Z" fill="#FCF2C8"/>
<path d="M15.7119 31.4504H15.4961C15.1725 31.4504 14.9102 31.1882 14.9102 30.8645C14.9102 30.5409 15.1725 30.2786 15.4961 30.2786H15.7119C16.0355 30.2786 16.2978 30.5409 16.2978 30.8645C16.2978 31.1881 16.0355 31.4504 15.7119 31.4504Z" fill="#FCF2C8"/>
<path d="M15.7119 33.7024H15.4961C15.1725 33.7024 14.9102 33.4401 14.9102 33.1165C14.9102 32.7928 15.1725 32.5305 15.4961 32.5305H15.7119C16.0355 32.5305 16.2978 32.7928 16.2978 33.1165C16.2978 33.4401 16.0355 33.7024 15.7119 33.7024Z" fill="#FCF2C8"/>
<path d="M20.1041 26.9465H17.5215C17.1979 26.9465 16.9355 26.6843 16.9355 26.3606C16.9355 26.0369 17.1979 25.7747 17.5215 25.7747H20.1041C20.4277 25.7747 20.69 26.0369 20.69 26.3606C20.69 26.6842 20.4277 26.9465 20.1041 26.9465Z" fill="#FCF2C8"/>
<path d="M20.1041 29.1985H17.5215C17.1979 29.1985 16.9355 28.9361 16.9355 28.6125C16.9355 28.2889 17.1979 28.0266 17.5215 28.0266H20.1041C20.4277 28.0266 20.69 28.2889 20.69 28.6125C20.69 28.9361 20.4277 29.1985 20.1041 29.1985Z" fill="#FCF2C8"/>
<path d="M20.1041 31.4504H17.5215C17.1979 31.4504 16.9355 31.1882 16.9355 30.8645C16.9355 30.5409 17.1979 30.2786 17.5215 30.2786H20.1041C20.4277 30.2786 20.69 30.5409 20.69 30.8645C20.69 31.1881 20.4277 31.4504 20.1041 31.4504Z" fill="#FCF2C8"/>
<path d="M20.1041 33.7024H17.5215C17.1979 33.7024 16.9355 33.4401 16.9355 33.1165C16.9355 32.7928 17.1979 32.5305 17.5215 32.5305H20.1041C20.4277 32.5305 20.69 32.7928 20.69 33.1165C20.69 33.4401 20.4277 33.7024 20.1041 33.7024Z" fill="#FCF2C8"/>
<path d="M20.8022 21.137H14.7991C13.7662 21.137 12.9258 21.9774 12.9258 23.0103V35.5352C12.9258 36.5682 13.7662 37.4085 14.7991 37.4085H20.8022C21.8352 37.4085 22.6755 36.5681 22.6755 35.5352V23.0103C22.6755 21.9774 21.8352 21.137 20.8022 21.137ZM21.5037 35.5352C21.5037 35.9227 21.1896 36.2366 20.8022 36.2366H14.7991C14.4117 36.2366 14.0977 35.9226 14.0977 35.5352V23.0102C14.0977 22.6228 14.4117 22.3088 14.7991 22.3088H15.8798C15.9495 22.3088 16.0059 22.3652 16.0059 22.4348C16.0059 22.847 16.3432 23.1843 16.7555 23.1843H18.8459C19.2582 23.1843 19.5955 22.847 19.5955 22.4348C19.5955 22.3652 19.6519 22.3088 19.7216 22.3088H20.8023C21.1897 22.3088 21.5037 22.6228 21.5037 23.0102V35.5352H21.5037Z" fill="#167CC1"/>
<path d="M30.5231 28.9055C30.9164 26.8834 29.596 24.9253 27.5739 24.532C25.5518 24.1387 23.5937 25.4591 23.2004 27.4812C22.8071 29.5033 24.1275 31.4614 26.1496 31.8547C28.1717 32.248 30.1298 30.9276 30.5231 28.9055Z" fill="#E9EFFF"/>
<path d="M28.0593 31.3313C26.903 30.7932 27.0993 29.6872 27.2204 29.2749C27.2526 29.1653 27.2397 29.0477 27.1869 28.9465L26.072 26.8091C26.0413 26.7503 25.9985 26.698 25.9447 26.6592C25.232 26.1443 25.374 25.3997 25.5376 24.9761C25.5726 24.8856 25.5747 24.7888 25.5494 24.6997C24.1293 25.2263 23.1172 26.593 23.1172 28.1963C23.1172 30.2554 24.7865 31.9247 26.8456 31.9247C27.3617 31.9247 27.8533 31.8198 28.3002 31.6302C28.2709 31.5035 28.1869 31.3906 28.0593 31.3313Z" fill="#D3DCFB"/>
<path d="M28.3951 27.9093L26.3024 26.7299C26.0829 26.6062 25.8115 26.7648 25.8115 27.0167V29.3755C25.8115 29.6273 26.0829 29.7859 26.3024 29.6622L28.3951 28.4829C28.6185 28.357 28.6185 28.0352 28.3951 27.9093Z" fill="#FF4155"/>
<path d="M17.1448 36.2367H14.799C14.4116 36.2367 14.0976 35.9227 14.0976 35.5353V23.0103C14.0976 22.6229 14.4116 22.3088 14.7991 22.3088H15.8798C15.9494 22.3088 16.0059 22.3652 16.0059 22.4349C16.0059 22.8471 16.3431 23.1844 16.7554 23.1844H17.5777C16.7462 22.2118 17.4163 21.358 17.6217 21.137H14.7991C13.7662 21.137 12.9258 21.9774 12.9258 23.0103V35.5352C12.9258 36.5682 13.7662 37.4085 14.7991 37.4085H17.0005C16.5735 36.8016 17.0922 36.2864 17.1448 36.2367Z" fill="#0E62A8"/>
</g>
<defs>
<clipPath id="clip0_442:2221">
<rect width="40" height="40" fill="white"/>
</clipPath>
</defs>
</svg>
