<svg width="40" height="40" viewBox="0 0 40 40" fill="none" xmlns="http://www.w3.org/2000/svg">
<g clip-path="url(#clip0_442:2280)">
<path d="M33.87 34.0499C37.1362 30.6166 39.1409 25.9722 39.1409 20.8594C39.1409 10.2882 30.5713 1.71851 20.0002 1.71851C9.42898 1.71851 0.859375 10.2881 0.859375 20.8594C0.859375 25.9722 2.86422 30.6166 6.13039 34.0499H33.87Z" fill="#73C3F9"/>
<path d="M9.17906 36.6477H14.6198C14.6161 36.6 14.6136 36.5521 14.6136 36.5035V13.1561C14.6136 12.1324 15.4464 11.2997 16.4701 11.2997H31.2652V3.78344C31.2652 1.69719 29.568 0 27.4819 0H9.84008C7.75391 0 6.05664 1.69719 6.05664 3.78344V33.9716C6.99695 34.9711 8.0443 35.8684 9.17906 36.6477Z" fill="#167CC1"/>
<path d="M15.6001 0H9.84C7.75391 0 6.05664 1.69719 6.05664 3.78344V33.9716C6.99695 34.9711 8.0443 35.8684 9.17898 36.6477H14.6197C14.616 36.6 14.6135 36.5521 14.6135 36.5035V13.1561C14.6135 12.413 15.0527 11.7708 15.6848 11.4745V5.07758C15.6848 4.99805 15.6503 4.92266 15.592 4.86852C15.081 4.39484 15.2998 4.00297 15.4975 3.79719C15.5833 3.70789 15.6093 3.57312 15.5487 3.46516C15.3814 3.16648 15.5351 2.89812 15.6272 2.77797C15.6648 2.72891 15.6848 2.66898 15.6848 2.60711V1.53422C15.6848 1.45367 15.6491 1.3782 15.5902 1.32328C15.1092 0.875937 15.3549 0.400313 15.5407 0.159609C15.5773 0.112266 15.5967 0.0564844 15.6001 0V0Z" fill="#024788"/>
<path d="M8.41211 36.093C11.629 38.5439 15.6445 40.0002 20.0008 40.0002C22.7638 40.0002 25.3895 39.4137 27.7618 38.3602H16.4717C15.448 38.3602 14.6152 37.5273 14.6152 36.5037V13.1562C14.6152 12.1326 15.448 11.2998 16.4717 11.2998H28.913V9.51367H8.41211V36.093Z" fill="#E9EFFF"/>
<path d="M8.41211 36.093C10.5334 37.7091 13.0019 38.8924 15.6865 39.5112V38.1853C15.0542 37.889 14.6151 37.2467 14.6151 36.5036V13.1562C14.6151 12.4131 15.0543 11.7709 15.6865 11.4746V9.51367H8.41211V36.093Z" fill="#D3DCFB"/>
<path d="M27.4834 2.354H24.8319C24.3377 2.354 23.9369 2.75471 23.9369 3.249C23.9369 3.82439 23.4662 4.29518 22.8908 4.29518H14.4343C13.8589 4.29518 13.3881 3.82439 13.3881 3.249C13.3881 2.75471 12.9874 2.354 12.4931 2.354H9.84164C9.05211 2.354 8.41211 2.994 8.41211 3.78354V9.74541H28.913V3.78354C28.913 2.994 28.273 2.354 27.4834 2.354Z" fill="#9BD8F9"/>
<path d="M15.6864 5.07775C15.6864 4.99822 15.6519 4.92283 15.5935 4.86869C15.3666 4.6583 15.2841 4.46416 15.2792 4.29518H14.4342C13.8588 4.29518 13.388 3.82439 13.388 3.249C13.388 2.75471 12.9873 2.354 12.4931 2.354H9.84156C9.05211 2.354 8.41211 2.994 8.41211 3.78354V9.74541H15.6865V5.07775H15.6864Z" fill="#73C3F9"/>
<path d="M9.06555 36.5696V3.78348C9.06555 3.35582 9.41352 3.00785 9.84117 3.00785H12.4927C12.6256 3.00785 12.7338 3.11598 12.7338 3.24895C12.7338 4.18629 13.4963 4.94895 14.4337 4.94895H22.8903C23.8277 4.94895 24.5903 4.18629 24.5903 3.24895C24.5903 3.11598 24.6985 3.00785 24.8314 3.00785H27.4828C27.9105 3.00785 28.2585 3.35582 28.2585 3.78348V11.91C28.2585 12.2711 28.5513 12.5639 28.9123 12.5639C29.2734 12.5639 29.5662 12.2711 29.5662 11.91L29.5662 3.78348C29.5662 2.63473 28.6316 1.7002 27.4828 1.7002H24.8314C23.9774 1.7002 23.2826 2.39496 23.2826 3.24902C23.2826 3.46168 23.103 3.64137 22.8902 3.64137H14.4339C14.2212 3.64137 14.0416 3.46176 14.0416 3.24902C14.0416 2.39504 13.3467 1.7002 12.4927 1.7002H9.84125C8.6925 1.7002 7.75789 2.63473 7.75789 3.78348L7.75781 35.5725C8.17875 35.9231 8.61523 36.2556 9.06555 36.5696Z" fill="#1E92D3"/>
<path d="M15.5785 3.64112H14.4338C14.2212 3.64112 14.0416 3.46151 14.0416 3.24878C14.0416 2.39479 13.3468 1.69995 12.4927 1.69995H9.84125C8.6925 1.69995 7.75789 2.63448 7.75789 3.78323L7.75781 35.5722C8.17875 35.9228 8.61516 36.2553 9.06555 36.5694L9.06563 3.78323C9.06563 3.35558 9.41359 3.00761 9.84125 3.00761H12.4927C12.6257 3.00761 12.7338 3.11573 12.7338 3.2487C12.7338 4.18605 13.4965 4.9487 14.4338 4.9487H15.653C15.6377 4.91909 15.6181 4.89151 15.5931 4.86831C15.0822 4.39464 15.3009 4.00276 15.4987 3.79698C15.5409 3.75323 15.5684 3.69839 15.5785 3.64112Z" fill="#167CC1"/>
<path d="M23.2401 6.21973H15.2812V8.51137H23.2401C23.8729 8.51137 24.3859 7.9984 24.3859 7.36559C24.3859 6.73277 23.873 6.21973 23.2401 6.21973Z" fill="#E9EFFF"/>
<path d="M18.1602 7.36551C18.1602 6.7327 18.6731 6.21973 19.3059 6.21973H15.2812V8.51137H19.3059C18.6731 8.51129 18.1602 7.99832 18.1602 7.36551Z" fill="#D3DCFB"/>
<path d="M15.3694 6.21973H14.0833C13.4505 6.21973 12.9375 6.7327 12.9375 7.36551C12.9375 7.99832 13.4505 8.51129 14.0833 8.51129H15.3694V6.21973Z" fill="#3C58A0"/>
<path d="M15.8754 2.71122H15.4976C15.1365 2.71122 14.8438 2.41849 14.8438 2.05739C14.8438 1.6963 15.1365 1.40356 15.4976 1.40356H15.8754C16.2365 1.40356 16.5292 1.6963 16.5292 2.05739C16.5292 2.41849 16.2365 2.71122 15.8754 2.71122Z" fill="#1E92D3"/>
<path d="M21.737 2.71122H18.107C17.7459 2.71122 17.4531 2.41849 17.4531 2.05739C17.4531 1.6963 17.7459 1.40356 18.107 1.40356H21.737C22.0981 1.40356 22.3908 1.6963 22.3908 2.05739C22.3908 2.41849 22.0981 2.71122 21.737 2.71122Z" fill="#1E92D3"/>
<path d="M11.4609 4.80082H10.5601C10.199 4.80082 9.90625 4.50809 9.90625 4.14699C9.90625 3.78582 10.199 3.49316 10.5601 3.49316H11.4609C11.822 3.49316 12.1148 3.7859 12.1148 4.14699C12.1148 4.50809 11.822 4.80082 11.4609 4.80082Z" fill="#E9EFFF"/>
<path d="M26.7617 4.80082H25.8609C25.4998 4.80082 25.207 4.50809 25.207 4.14699C25.207 3.78582 25.4998 3.49316 25.8609 3.49316H26.7617C27.1228 3.49316 27.4155 3.7859 27.4155 4.14699C27.4156 4.50809 27.1229 4.80082 26.7617 4.80082Z" fill="#E9EFFF"/>
<path d="M33.4099 34.5161H16.4716C15.3786 34.5161 14.4844 35.4104 14.4844 36.5034C14.4844 37.5963 15.3786 38.4906 16.4716 38.4906H27.4628C29.6935 37.5453 31.7069 36.1884 33.4099 34.5161Z" fill="#FF9100"/>
<path d="M31.4824 36.0092C31.4824 36.0623 31.487 36.1146 31.4936 36.1663C31.839 35.9066 32.1755 35.6356 32.5022 35.3535V34.6333C31.8936 34.9108 31.4824 35.4243 31.4824 36.0092Z" fill="#BEC8F7"/>
<path d="M14.5059 36.2003C14.6529 36.9387 15.4798 37.5086 16.4698 37.5086H29.4465C30.158 37.1041 30.841 36.6555 31.4918 36.1661C31.4852 36.1143 31.4806 36.062 31.4806 36.0089C31.4806 35.3279 32.0379 34.7435 32.8155 34.5161H16.4698C15.4798 34.5162 14.6529 35.2499 14.5059 36.2003Z" fill="#E9EFFF"/>
<path d="M22.2124 34.5161H16.4698C15.4798 34.5161 14.6529 35.2498 14.5059 36.2003C14.6529 36.9387 15.4798 37.5086 16.4698 37.5086H22.2191C20.8216 37.0933 20.7847 34.931 22.2124 34.5161Z" fill="#D3DCFB"/>
<path d="M33.9433 33.9717V11.6905C33.9433 11.4036 33.7087 11.1689 33.4218 11.1689H16.4716C15.3787 11.1689 14.4844 12.0632 14.4844 13.1562V36.5036H14.4878C14.547 35.4628 15.4166 34.6296 16.4716 34.6296H33.2938C33.5156 34.4155 33.7321 34.1961 33.9433 33.9717Z" fill="#FFB332"/>
<path d="M14.4844 13.1562V36.5036H14.4878C14.547 35.4628 15.4166 34.6296 16.4716 34.6296H21.9288C20.6085 34.0163 20.6858 32.3922 20.6858 32.3922C20.6858 32.3922 20.6858 25.1266 20.6858 22.8993C20.6858 20.6719 21.3688 19.3201 21.3688 19.3201V16.6463C19.4604 13.7518 22.1575 11.1689 22.1575 11.1689H16.4716C15.3786 11.1689 14.4844 12.0632 14.4844 13.1562Z" fill="#FF9100"/>
<path d="M16.6328 11.1689H18.162V34.6296H16.6328V11.1689Z" fill="#FFB332"/>
<path d="M30.5527 16.6462H21.3678C21.0805 16.6462 20.8477 16.8791 20.8477 17.1664V18.7999C20.8477 19.0872 21.0805 19.3201 21.3678 19.3201H30.5527C30.8399 19.3201 31.0728 19.0872 31.0728 18.7999V17.1664C31.0728 16.8791 30.8399 16.6462 30.5527 16.6462Z" fill="#FFDD40"/>
<path d="M31.0737 15.0408H29.5484C29.1873 15.0408 28.8945 14.7481 28.8945 14.387C28.8945 14.0258 29.1873 13.7332 29.5484 13.7332H31.0737C31.4348 13.7332 31.7275 14.0259 31.7275 14.387C31.7275 14.7482 31.4348 15.0408 31.0737 15.0408Z" fill="#E9EFFF"/>
</g>
<defs>
<clipPath id="clip0_442:2280">
<rect width="40" height="40" fill="white"/>
</clipPath>
</defs>
</svg>
