<svg width="40" height="40" viewBox="0 0 40 40" fill="none" xmlns="http://www.w3.org/2000/svg">
<g clip-path="url(#clip0)">
<path d="M1.24414 26.9565C4.07 34.5724 11.4009 40 20.0002 40C28.5995 40 35.9303 34.5724 38.7562 26.9565L20.0002 25.2174L1.24414 26.9565Z" fill="#FFDA44"/>
<path d="M20.0002 0C11.4009 0 4.07 5.4275 1.24414 13.0435L20.0002 14.7826L38.7562 13.0434C35.9303 5.4275 28.5995 0 20.0002 0Z" fill="black"/>
<path d="M1.24398 13.0435C0.440078 15.2101 0 17.5535 0 19.9999C0 22.4463 0.440078 24.7898 1.24398 26.9564H38.7561C39.56 24.7898 40 22.4463 40 19.9999C40 17.5535 39.56 15.2101 38.756 13.0435H1.24398Z" fill="#D80027"/>
</g>
<defs>
<clipPath id="clip0">
<rect width="40" height="40" fill="white"/>
</clipPath>
</defs>
</svg>
