<svg width="20" height="20" viewBox="0 0 20 20" fill="none" xmlns="http://www.w3.org/2000/svg">
<path d="M14.6665 4.66675H15.9998M5.99984 0.666748H13.9998C16.9454 0.666748 19.3332 3.05456 19.3332 6.00008V14.0001C19.3332 16.9456 16.9454 19.3334 13.9998 19.3334H5.99984C3.05432 19.3334 0.666504 16.9456 0.666504 14.0001V6.00008C0.666504 3.05456 3.05432 0.666748 5.99984 0.666748ZM9.99984 14.0001C7.7907 14.0001 5.99984 12.2092 5.99984 10.0001C5.99984 7.79094 7.7907 6.00008 9.99984 6.00008C12.209 6.00008 13.9998 7.79094 13.9998 10.0001C13.9998 12.2092 12.209 14.0001 9.99984 14.0001Z" stroke="black"/>
</svg>
