<svg width="44" height="44" viewBox="0 0 44 44" fill="none" xmlns="http://www.w3.org/2000/svg">
<path d="M25.7084 12.6665H28.6673C30.1401 12.6665 31.334 13.8604 31.334 15.3332V17.9998C31.334 25.3636 25.3644 31.3332 18.0007 31.3332H15.334C13.8612 31.3332 12.6673 30.1393 12.6673 28.6665V26.8239C12.6673 26.3189 12.9527 25.8572 13.4044 25.6313L16.6256 24.0207C17.3513 23.6578 18.2302 24.0219 18.4868 24.7916L18.8838 25.9827C19.141 26.7542 19.9324 27.2135 20.7299 27.054C23.9216 26.4156 26.4165 23.9208 27.0548 20.7291C27.2143 19.9316 26.755 19.1402 25.9835 18.883L24.5053 18.3903C23.8444 18.17 23.4645 17.4779 23.6334 16.802L24.4148 13.6765C24.5632 13.0829 25.0965 12.6665 25.7084 12.6665Z" stroke="black"/>
</svg>
