<svg width="40" height="40" viewBox="0 0 40 40" fill="none" xmlns="http://www.w3.org/2000/svg">
<path d="M0 19.9999C0 22.4464 0.440078 24.7898 1.24398 26.9564L20 28.6956L38.756 26.9564C39.5599 24.7898 40 22.4464 40 19.9999C40 17.5535 39.5599 15.2101 38.756 13.0435L20 11.3043L1.24398 13.0435C0.440078 15.2101 0 17.5535 0 19.9999Z" fill="#FFDA44"/>
<path d="M38.7562 13.0435C35.9303 5.42758 28.5995 0 20.0002 0C11.4009 0 4.07 5.42758 1.24414 13.0435H38.7562Z" fill="#D80027"/>
<path d="M1.24414 26.9565C4.07 34.5725 11.4009 40.0001 20.0002 40.0001C28.5995 40.0001 35.9303 34.5725 38.7562 26.9565H1.24414Z" fill="#D80027"/>
</svg>
