<svg width="20" height="20" viewBox="0 0 20 20" fill="none" xmlns="http://www.w3.org/2000/svg">
<path d="M2.5329 15.6006L2.98011 15.8242L3.11843 15.5476L2.93266 15.3003L2.5329 15.6006ZM4.39929 17.467L4.69961 17.0673L4.45232 16.8815L4.17568 17.0198L4.39929 17.467ZM0.666504 19.3334L0.21929 19.1098C0.123043 19.3023 0.16077 19.5348 0.312951 19.687C0.465131 19.8391 0.697616 19.8769 0.890111 19.7806L0.666504 19.3334ZM5.99984 6.00008L5.72249 5.58406C5.58339 5.67679 5.49984 5.8329 5.49984 6.00008H5.99984ZM13.9998 14.0001V14.5001C14.167 14.5001 14.3231 14.4165 14.4159 14.2774L13.9998 14.0001ZM8.33885 6.7008L8.83204 6.6186L8.33885 6.7008ZM8.52477 7.81636L8.03158 7.89856L8.52477 7.81636ZM7.94918 9.14496L8.22653 9.56099L7.94918 9.14496ZM13.2991 11.6611L13.3813 11.1679H13.3813L13.2991 11.6611ZM12.1836 11.4751L12.1014 11.9683V11.9683L12.1836 11.4751ZM10.855 12.0507L10.4389 11.7734L10.855 12.0507ZM0.166504 10.0001C0.166504 12.2135 0.898385 14.2573 2.13314 15.9009L2.93266 15.3003C1.82354 13.8239 1.1665 11.9895 1.1665 10.0001H0.166504ZM9.99984 0.166748C4.56904 0.166748 0.166504 4.56928 0.166504 10.0001H1.1665C1.1665 5.12157 5.12132 1.16675 9.99984 1.16675V0.166748ZM19.8332 10.0001C19.8332 4.56928 15.4306 0.166748 9.99984 0.166748V1.16675C14.8784 1.16675 18.8332 5.12157 18.8332 10.0001H19.8332ZM9.99984 19.8334C15.4306 19.8334 19.8332 15.4309 19.8332 10.0001H18.8332C18.8332 14.8786 14.8784 18.8334 9.99984 18.8334V19.8334ZM4.09897 17.8668C5.74258 19.1015 7.78646 19.8334 9.99984 19.8334V18.8334C8.01046 18.8334 6.17598 18.1764 4.69961 17.0673L4.09897 17.8668ZM0.890111 19.7806L4.6229 17.9142L4.17568 17.0198L0.442897 18.8862L0.890111 19.7806ZM2.08568 15.377L0.21929 19.1098L1.11372 19.557L2.98011 15.8242L2.08568 15.377ZM5.49984 6.00008V7.33341H6.49984V6.00008H5.49984ZM12.6665 14.5001H13.9998V13.5001H12.6665V14.5001ZM5.49984 7.33341C5.49984 11.2915 8.70846 14.5001 12.6665 14.5001V13.5001C9.26075 13.5001 6.49984 10.7392 6.49984 7.33341H5.49984ZM6.27719 6.41611L6.5614 6.22663L6.0067 5.39458L5.72249 5.58406L6.27719 6.41611ZM7.84565 6.783L8.03158 7.89856L9.01797 7.73416L8.83204 6.6186L7.84565 6.783ZM7.67183 8.72894L6.38915 9.58406L6.94385 10.4161L8.22653 9.56099L7.67183 8.72894ZM8.03158 7.89856C8.08549 8.22203 7.94468 8.54704 7.67183 8.72894L8.22653 9.56099C8.8268 9.16081 9.13657 8.44578 9.01797 7.73416L8.03158 7.89856ZM6.5614 6.22663C7.06456 5.89119 7.74623 6.18652 7.84565 6.783L8.83204 6.6186C8.61333 5.30633 7.11364 4.65662 6.0067 5.39458L6.5614 6.22663ZM14.4159 14.2774L14.6053 13.9932L13.7733 13.4385L13.5838 13.7227L14.4159 14.2774ZM13.3813 11.1679L12.2658 10.9819L12.1014 11.9683L13.2169 12.1543L13.3813 11.1679ZM10.4389 11.7734L9.58381 13.0561L10.4159 13.6108L11.271 12.3281L10.4389 11.7734ZM12.2658 10.9819C11.5541 10.8633 10.8391 11.1731 10.4389 11.7734L11.271 12.3281C11.4529 12.0552 11.7779 11.9144 12.1014 11.9683L12.2658 10.9819ZM14.6053 13.9932C15.3433 12.8863 14.6936 11.3866 13.3813 11.1679L13.2169 12.1543C13.8134 12.2537 14.1087 12.9354 13.7733 13.4385L14.6053 13.9932Z" fill="black"/>
</svg>
