<svg width="375" height="290" viewBox="0 0 375 290" fill="none" xmlns="http://www.w3.org/2000/svg">
<rect x="-32" y="150" width="140" height="140" fill="#FDE9D4"/>
<circle cx="38.7107" cy="221" r="50" transform="rotate(-45 38.7107 221)" fill="#236967"/>
<mask id="path-3-inside-1_3866:2784" fill="white">
<path d="M3.35559 185.645C-6.02123 195.021 -11.2891 207.739 -11.2891 221C-11.2891 234.261 -6.02122 246.979 3.35559 256.355C12.7324 265.732 25.4501 271 38.7109 271C51.9718 271 64.6894 265.732 74.0663 256.355L38.7109 221L3.35559 185.645Z"/>
</mask>
<path d="M3.35559 185.645C-6.02123 195.021 -11.2891 207.739 -11.2891 221C-11.2891 234.261 -6.02122 246.979 3.35559 256.355C12.7324 265.732 25.4501 271 38.7109 271C51.9718 271 64.6894 265.732 74.0663 256.355L38.7109 221L3.35559 185.645Z" fill="#FFCC1A" stroke="black" stroke-width="20" mask="url(#path-3-inside-1_3866:2784)"/>
<rect x="268" y="0.000244141" width="140" height="140" fill="#236967"/>
<path d="M338 78L371 140H305L338 78Z" fill="#FC8B4C"/>
<path d="M338 66C341.429 75.2658 348.734 82.5713 358 86C348.734 89.4287 341.429 96.7342 338 106C334.571 96.7342 327.266 89.4287 318 86C327.266 82.5713 334.571 75.2658 338 66Z" fill="#FDE9D4"/>
<path d="M338 0C344 16.2152 356.785 28.9998 373 35C356.785 41.0002 344 53.7848 338 70C332 53.7848 319.215 41.0002 303 35C319.215 28.9998 332 16.2152 338 0Z" fill="#FDE9D4"/>
<rect x="118" y="150" width="140" height="140" fill="#FFCC1A"/>
<rect x="123.91" y="166.517" width="15" height="60" transform="rotate(-45 123.91 166.517)" fill="#FDE9D4"/>
<rect x="134.517" y="208.943" width="15" height="60" transform="rotate(-135 134.517 208.943)" fill="#FDE9D4"/>
<rect x="123.91" y="241.369" width="15" height="60" transform="rotate(-45 123.91 241.369)" fill="#FDE9D4"/>
<rect x="134.517" y="283.795" width="15" height="60" transform="rotate(-135 134.517 283.795)" fill="#FDE9D4"/>
<rect x="198.763" y="166.517" width="15" height="60" transform="rotate(-45 198.763 166.517)" fill="#FDE9D4"/>
<rect x="209.369" y="208.943" width="15" height="60" transform="rotate(-135 209.369 208.943)" fill="#FDE9D4"/>
<rect x="198.763" y="241.369" width="15" height="60" transform="rotate(-45 198.763 241.369)" fill="#FDE9D4"/>
<rect x="209.369" y="283.795" width="15" height="60" transform="rotate(-135 209.369 283.795)" fill="#FDE9D4"/>
<rect width="140" height="140" transform="matrix(1 0 0 -1 -32 140)" fill="#FE7167"/>
<path d="M38 45L8 95H68L38 45Z" fill="#FDE9D4"/>
<rect width="26" height="45" transform="matrix(1 0 0 -1 25 140)" fill="black"/>
<circle r="10" transform="matrix(1 0 0 -1 38 20)" fill="black"/>
<circle r="10" transform="matrix(1 0 0 -1 68 20)" fill="black"/>
<circle r="10" transform="matrix(1 0 0 -1 8 20)" fill="black"/>
<path d="M118 0L258 0V140H118V0Z" fill="#FDE9D4"/>
<path d="M118 70C118 31.3401 149.34 0 188 0V140C149.34 140 118 108.66 118 70Z" fill="#236967"/>
<rect x="153" y="70.355" width="50" height="50" transform="rotate(-45 153 70.355)" fill="#FE7167"/>
<circle cx="188" cy="69.9998" r="7" fill="black"/>
<g clip-path="url(#clip0_3866:2784)">
<rect width="140" height="140" transform="matrix(-1 0 0 1 408 150)" fill="#FDE9D4"/>
<circle r="19.9598" transform="matrix(-1 0 0 1 388.04 294)" fill="#FE7167"/>
<circle r="19.9598" transform="matrix(-1 0 0 1 354.305 294)" fill="#FE7167"/>
<circle r="19.9598" transform="matrix(-1 0 0 1 320.57 294)" fill="#FE7167"/>
<circle r="19.9598" transform="matrix(-1 0 0 1 287.959 294)" fill="#FE7167"/>
<path d="M408 290C408 271.435 400.625 253.63 387.497 240.502C374.37 227.375 356.565 220 338 220C319.435 220 301.63 227.375 288.503 240.502C275.375 253.63 268 271.435 268 290H280.892C280.892 274.854 286.908 260.328 297.618 249.618C308.328 238.908 322.854 232.891 338 232.891C353.146 232.891 367.672 238.908 378.382 249.618C389.092 260.328 395.108 274.854 395.108 290H408Z" fill="#FE7167"/>
<circle r="20" transform="matrix(-1 0 0 1 338 184)" fill="#FC8B4C"/>
</g>
<defs>
<clipPath id="clip0_3866:2784">
<rect width="140" height="140" fill="white" transform="matrix(-1 0 0 1 408 150)"/>
</clipPath>
</defs>
</svg>
