<svg width="300" height="150" viewBox="0 0 300 150" fill="none" xmlns="http://www.w3.org/2000/svg">
<rect width="149.998" height="149.998" fill="#FDE9D4"/>
<path d="M149.998 100C149.998 44.7716 105.227 0 49.998 0L-0.00012207 0V149.998H149.998V100Z" fill="#FE7167"/>
<path d="M70.0001 74.9994C31.3401 75.0003 0.000716293 106.341 0.00159988 145.001L0.00171414 150L150 149.997L150 144.998C149.999 106.338 118.658 74.9983 79.9982 74.9991L70.0001 74.9994Z" fill="black"/>
<rect width="53.5708" height="53.5708" transform="matrix(-0.707091 0.707123 0.707123 0.707091 74.998 48.2139)" fill="white"/>
<circle r="7.49991" transform="matrix(2.28555e-05 1 1 -2.28555e-05 74.9991 85.7136)" fill="black"/>
<rect x="149.998" width="149.998" height="149.998" fill="#236967"/>
<circle cx="225.533" cy="58.392" r="32.6782" fill="#FFCC1A"/>
<circle cx="225.533" cy="91.6059" r="32.6782" fill="white"/>
<path d="M194.251 58.392C208.541 52.7202 219.861 41.4004 225.533 27.1104C231.205 41.4004 242.524 52.7202 256.814 58.392C242.524 64.0639 231.205 75.3837 225.533 89.6737C219.861 75.3837 208.541 64.0639 194.251 58.392Z" stroke="white"/>
<path d="M194.251 91.6059C208.541 85.9341 219.861 74.6143 225.533 60.3243C231.205 74.6143 242.524 85.9341 256.814 91.6059C242.524 97.2778 231.205 108.598 225.533 122.888C219.861 108.598 208.541 97.2778 194.251 91.6059Z" stroke="#FDD503"/>
</svg>
