<svg width="300" height="150" viewBox="0 0 300 150" fill="none" xmlns="http://www.w3.org/2000/svg">
<rect width="150" height="150" fill="#FC8B4C"/>
<circle cx="36.4283" cy="113.571" r="25.7857" fill="#FDE9D4" stroke="#236967" stroke-width="2"/>
<circle cx="113.572" cy="36.4288" r="25.7857" fill="#FDE9D4" stroke="#236967" stroke-width="2"/>
<path d="M7.85402 42.5C23.7361 36.3017 36.3017 23.7361 42.5 7.85402C48.6983 23.7361 61.2639 36.3017 77.146 42.5C61.2639 48.6983 48.6983 61.2639 42.5 77.146C36.3017 61.2639 23.7361 48.6983 7.85402 42.5Z" fill="#FDE9D4" stroke="#236967" stroke-width="2"/>
<path d="M72.854 107.5C88.7361 101.302 101.302 88.7361 107.5 72.854C113.698 88.7361 126.264 101.302 142.146 107.5C126.264 113.698 113.698 126.264 107.5 142.146C101.302 126.264 88.7361 113.698 72.854 107.5Z" fill="#FDE9D4" stroke="#236967" stroke-width="2"/>
<path d="M42.5001 26.4287C45.2553 33.8745 51.1258 39.745 58.5716 42.5001C51.1258 45.2553 45.2553 51.1258 42.5001 58.5716C39.745 51.1258 33.8745 45.2553 26.4287 42.5001C33.8745 39.745 39.745 33.8745 42.5001 26.4287Z" fill="#236967"/>
<path d="M107.5 91.4287C110.255 98.8745 116.126 104.745 123.572 107.5C116.126 110.255 110.255 116.126 107.5 123.572C104.745 116.126 98.8745 110.255 91.4287 107.5C98.8745 104.745 104.745 98.8745 107.5 91.4287Z" fill="#236967"/>
<rect x="150" width="150" height="150" fill="#FDE9D4"/>
<path d="M225 101.786L192.857 48.2142H257.143L225 101.786Z" fill="#236967"/>
<rect x="211.071" width="27.8571" height="48.2143" fill="#FE7167"/>
<circle cx="225" cy="128.571" r="9.71429" fill="#FE7167" stroke="#236967" stroke-width="2"/>
<circle cx="257.143" cy="128.571" r="9.71429" fill="#FE7167" stroke="#236967" stroke-width="2"/>
<circle cx="192.857" cy="128.571" r="9.71429" fill="#FE7167" stroke="#236967" stroke-width="2"/>
</svg>
