<svg width="300" height="150" viewBox="0 0 300 150" fill="none" xmlns="http://www.w3.org/2000/svg">
<rect width="150" height="150" fill="#FDE9D4"/>
<circle r="35" transform="matrix(1 0 0 -1 35 105)" fill="#FFCC1A"/>
<circle r="35" transform="matrix(1 0 0 -1 105 35)" fill="#FE7167"/>
<circle r="31" transform="matrix(1 0 0 -1 35 35)" stroke="#FC8B4C" stroke-width="8"/>
<path d="M85.1191 112.5C96.8516 106.421 106.421 96.8516 112.5 85.1191C118.579 96.8516 128.148 106.421 139.881 112.5C128.148 118.579 118.579 128.148 112.5 139.881C106.421 128.148 96.8516 118.579 85.1191 112.5Z" stroke="#236967" stroke-width="8"/>
<g clip-path="url(#clip0_335:2247)">
<rect x="150" width="150" height="150" fill="#FFCC1A"/>
<path d="M298.393 148.929H150L157.5 126.964L168.214 106.607L186.964 91.6073L208.393 83.0359H240L267.857 94.2859L286.071 120.536L298.393 148.929Z" fill="#236967"/>
<ellipse cx="171.386" cy="149.957" rx="21.3855" ry="21.3855" fill="#FDE9D4"/>
<circle cx="207.53" cy="149.957" r="21.3855" fill="#FDE9D4"/>
<circle cx="243.675" cy="149.957" r="21.3855" fill="#FDE9D4"/>
<ellipse cx="278.615" cy="149.957" rx="21.3856" ry="21.3855" fill="#FDE9D4"/>
<path d="M150 150C150 130.109 157.902 111.032 171.967 96.967C186.032 82.9018 205.109 75 225 75C244.891 75 263.968 82.9018 278.033 96.967C292.098 111.032 300 130.109 300 150H286.188C286.188 133.772 279.741 118.209 268.266 106.734C256.791 95.2589 241.228 88.8124 225 88.8124C208.772 88.8124 193.209 95.2589 181.734 106.734C170.259 118.209 163.812 133.772 163.812 150H150Z" fill="#FDE9D4"/>
<circle cx="225" cy="36.4286" r="21.4286" fill="#FC8B4C"/>
</g>
<defs>
<clipPath id="clip0_335:2247">
<rect width="150" height="150" fill="white" transform="translate(150)"/>
</clipPath>
</defs>
</svg>
