<svg width="560" height="560" viewBox="0 0 560 560" fill="none" xmlns="http://www.w3.org/2000/svg">
<g clip-path="url(#clip0)">
<path d="M140 140H280V280H140V140Z" fill="#FDE9D4"/>
<path d="M265.355 194.645C284.881 214.171 284.881 245.829 265.355 265.356C245.829 284.882 214.171 284.882 194.644 265.356C175.118 245.829 175.118 214.171 194.644 194.645C214.171 175.119 245.829 175.119 265.355 194.645Z" fill="#FFCC1A"/>
<path d="M194.644 194.645C185.267 204.022 180 216.739 180 230C180 243.261 185.267 255.979 194.644 265.356C204.021 274.732 216.739 280 230 280C243.26 280 255.978 274.732 265.355 265.356L230 230L194.644 194.645Z" fill="black"/>
<path d="M280 173.5V280H195.5L280 173.5Z" fill="#236967"/>
<path d="M420 0.000244141L560 0.000244141V140H420V0.000244141Z" fill="#FFCC1A"/>
<path d="M485.833 45.0002H494.166V95.0002H485.833V45.0002Z" fill="white"/>
<path d="M469.376 55.269L475.269 49.3764L510.624 84.7318L504.731 90.6243L469.376 55.269Z" fill="white"/>
<path d="M510.624 55.269L504.731 49.3764L469.376 84.7318L475.269 90.6243L510.624 55.269Z" fill="white"/>
<path d="M465 74.1668V65.8335H515V74.1668H465Z" fill="white"/>
<path d="M485 120C485 122.762 487.239 125 490 125C492.761 125 495 122.762 495 120C495 117.239 492.761 115 490 115C487.239 115 485 117.239 485 120Z" fill="white"/>
<path d="M535 70.0002C535 72.7617 537.239 75.0002 540 75.0002C542.761 75.0002 545 72.7617 545 70.0002C545 67.2388 542.761 65.0002 540 65.0002C537.239 65.0002 535 67.2388 535 70.0002Z" fill="white"/>
<path d="M435 70.0002C435 72.7617 437.239 75.0002 440 75.0002C442.761 75.0002 445 72.7617 445 70.0002C445 67.2388 442.761 65.0002 440 65.0002C437.239 65.0002 435 67.2388 435 70.0002Z" fill="white"/>
<path d="M485 20.0002C485 22.7617 487.239 25.0002 490 25.0002C492.761 25.0002 495 22.7617 495 20.0002C495 17.2388 492.761 15.0002 490 15.0002C487.239 15.0002 485 17.2388 485 20.0002Z" fill="white"/>
<path d="M420 140V90.5002L521 140H420Z" fill="#236967"/>
<path d="M280 280H420V420H280V280Z" fill="#236967"/>
<path d="M420 280C420 298.565 412.625 316.37 399.497 329.497C386.37 342.625 368.565 350 350 350C331.435 350 313.63 342.625 300.503 329.497C287.375 316.37 280 298.565 280 280L350 280H420Z" fill="#FFCC1A"/>
<path fill-rule="evenodd" clip-rule="evenodd" d="M354.167 363H347.833V411H354.167V363ZM346.833 362V412H355.167V362H346.833Z" fill="white"/>
<path fill-rule="evenodd" clip-rule="evenodd" d="M336.269 367.79L331.79 372.269L365.731 406.21L370.21 401.732L336.269 367.79ZM330.376 372.269L365.731 407.624L371.624 401.732L336.269 366.376L330.376 372.269Z" fill="white"/>
<path fill-rule="evenodd" clip-rule="evenodd" d="M365.731 367.79L370.21 372.269L336.269 406.21L331.79 401.732L365.731 367.79ZM371.624 372.269L336.269 407.624L330.376 401.732L365.731 366.376L371.624 372.269Z" fill="white"/>
<path fill-rule="evenodd" clip-rule="evenodd" d="M327 383.833V390.167H375V383.833H327ZM326 391.167H376V382.833H326V391.167Z" fill="white"/>
<path d="M280 20C280 8.9543 288.954 0 300 0L420 0V140H280V20Z" fill="#FDE9D4"/>
<path d="M280 100C280 44.7718 324.772 0.000244141 380 0.000244141L420 0.000244141V140H280V100Z" fill="#FDE9D4"/>
<path d="M350 70.0002C350 31.3403 381.34 0.000244141 420 0.000244141V140C381.34 140 350 108.66 350 70.0002Z" fill="#FE7167"/>
<path d="M296 70.3553L331.355 35L366.711 70.3553L331.355 105.711L296 70.3553Z" fill="#FFCC1A"/>
<path d="M338 70C338 73.866 334.866 77 331 77C327.134 77 324 73.866 324 70C324 66.134 327.134 63 331 63C334.866 63 338 66.134 338 70Z" fill="black"/>
<path d="M420 140V90.5002L363 140H420Z" fill="#236967"/>
<path d="M140 140L140 280H0V240C0 184.772 44.7715 140 100 140H140Z" fill="#FE7167"/>
<path d="M96 250C84.9543 250 76 241.046 76 230C76 218.955 84.9543 210 96 210C107.046 210 116 218.955 116 230C116 241.046 107.046 250 96 250Z" fill="black"/>
<path d="M76 250C64.9543 250 56 241.046 56 230C56 218.955 64.9543 210 76 210C87.0457 210 96 218.955 96 230C96 241.046 87.0457 250 76 250Z" fill="#FDE9D4"/>
<path d="M420 140H560V280H420V140Z" fill="#FE7167"/>
<path d="M521 140L560 280H420V140H521Z" fill="#236967"/>
<path d="M420 280C420 261.435 427.375 243.63 440.503 230.503C453.63 217.375 471.435 210 490 210C508.565 210 526.37 217.375 539.497 230.503C552.625 243.63 560 261.435 560 280H547.108C547.108 264.854 541.092 250.328 530.382 239.618C519.672 228.908 505.146 222.892 490 222.892C474.854 222.892 460.328 228.908 449.618 239.618C438.908 250.328 432.892 264.854 432.892 280H420Z" fill="#FDE9D4"/>
<path d="M459.92 284C459.92 295.023 450.983 303.96 439.96 303.96C428.936 303.96 420 295.023 420 284C420 272.976 428.936 264.04 439.96 264.04C450.983 264.04 459.92 272.976 459.92 284Z" fill="#FDE9D4"/>
<path d="M493.655 284C493.655 295.023 484.719 303.96 473.695 303.96C462.672 303.96 453.735 295.023 453.735 284C453.735 272.976 462.672 264.04 473.695 264.04C484.719 264.04 493.655 272.976 493.655 284Z" fill="#FDE9D4"/>
<path d="M527.389 284C527.389 295.023 518.453 303.96 507.43 303.96C496.406 303.96 487.47 295.023 487.47 284C487.47 272.976 496.406 264.04 507.43 264.04C518.453 264.04 527.389 272.976 527.389 284Z" fill="#FDE9D4"/>
<path d="M560.001 284C560.001 295.023 551.064 303.96 540.041 303.96C529.017 303.96 520.081 295.023 520.081 284C520.081 272.976 529.017 264.04 540.041 264.04C551.064 264.04 560.001 272.976 560.001 284Z" fill="#FDE9D4"/>
<path d="M510 174C510 185.046 501.046 194 490 194C478.954 194 470 185.046 470 174C470 162.954 478.954 154 490 154C501.046 154 510 162.954 510 174Z" fill="#FC8B4C"/>
<path d="M280 140H420V280H280V140Z" fill="#FFCC1A"/>
<path d="M280.91 151.517L291.516 140.91L333.943 183.337L323.336 193.943L280.91 151.517Z" fill="white"/>
<path d="M291.517 193.943L280.91 183.337L323.336 140.91L333.943 151.517L291.517 193.943Z" fill="white"/>
<path d="M363 140L280 173.5V280H420V140H363Z" fill="#236967"/>
<path d="M350 218L383 280H317L350 218Z" fill="#FE7167"/>
<path d="M351 206C354.429 215.266 361.734 222.571 371 226C361.734 229.429 354.429 236.734 351 246C347.571 236.734 340.266 229.429 331 226C340.266 222.571 347.571 215.266 351 206Z" fill="#FDE9D4"/>
<path d="M420 280H560V420H420V280Z" fill="#236967"/>
<path d="M521 334.5C521 351.345 507.345 365 490.5 365C473.655 365 460 351.345 460 334.5C460 317.655 473.655 304 490.5 304C507.345 304 521 317.655 521 334.5Z" fill="#FFCC1A"/>
<path d="M521 365.5C521 382.345 507.345 396 490.5 396C473.655 396 460 382.345 460 365.5C460 348.655 473.655 335 490.5 335C507.345 335 521 348.655 521 365.5Z" fill="white"/>
<path fill-rule="evenodd" clip-rule="evenodd" d="M461.393 333.962C460.932 334.148 460.468 334.327 460 334.5C460.468 334.673 460.932 334.852 461.393 335.038C474.4 340.283 484.717 350.6 489.962 363.607C490.148 364.068 490.327 364.532 490.5 365C490.673 364.532 490.852 364.068 491.038 363.607C496.283 350.6 506.6 340.283 519.607 335.038C520.068 334.852 520.532 334.673 521 334.5C520.532 334.327 520.068 334.148 519.607 333.962C506.6 328.717 496.283 318.4 491.038 305.393C490.852 304.932 490.673 304.468 490.5 304C490.327 304.468 490.148 304.932 489.962 305.393C484.717 318.4 474.4 328.717 461.393 333.962ZM462.705 334.5C475.211 339.825 485.175 349.789 490.5 362.295C495.825 349.789 505.789 339.825 518.295 334.5C505.789 329.175 495.825 319.211 490.5 306.705C485.175 319.211 475.211 329.175 462.705 334.5Z" fill="white"/>
<path fill-rule="evenodd" clip-rule="evenodd" d="M461.393 364.962C460.932 365.148 460.468 365.327 460 365.5C460.468 365.673 460.932 365.852 461.393 366.038C474.4 371.283 484.717 381.6 489.962 394.607C490.148 395.068 490.327 395.532 490.5 396C490.673 395.532 490.852 395.068 491.038 394.607C496.283 381.6 506.6 371.283 519.607 366.038C520.068 365.852 520.532 365.673 521 365.5C520.532 365.327 520.068 365.148 519.607 364.962C506.6 359.717 496.283 349.4 491.038 336.393C490.852 335.932 490.673 335.468 490.5 335C490.327 335.468 490.148 335.932 489.962 336.393C484.717 349.4 474.4 359.717 461.393 364.962ZM462.705 365.5C475.211 370.825 485.175 380.789 490.5 393.295C495.825 380.789 505.789 370.825 518.295 365.5C505.789 360.175 495.825 350.211 490.5 337.705C485.175 350.211 475.211 360.175 462.705 365.5Z" fill="#FDD503"/>
<path d="M140 280H280V420H140V280Z" fill="black"/>
<path d="M140 420V345.5L195.5 280H280V420H195.5H140Z" fill="#236967"/>
<path d="M140.135 345.661C139.223 360.333 142.955 374.92 150.799 387.353C158.643 399.785 170.203 409.433 183.838 414.927C197.473 420.421 212.492 421.484 226.765 417.963C241.037 414.442 253.839 406.518 263.355 395.313C272.871 384.108 278.618 370.191 279.781 355.537C280.943 340.882 277.463 326.234 269.833 313.668C262.203 301.103 250.811 291.259 237.272 285.531C223.733 279.804 208.735 278.484 194.404 281.76L195.494 286.527C208.823 283.481 222.774 284.708 235.367 290.036C247.96 295.363 258.556 304.519 265.653 316.207C272.75 327.894 275.987 341.519 274.905 355.15C273.824 368.78 268.479 381.725 259.627 392.147C250.776 402.569 238.869 409.94 225.593 413.215C212.318 416.489 198.348 415.501 185.666 410.391C172.983 405.281 162.231 396.307 154.935 384.743C147.639 373.179 144.168 359.611 145.016 345.964L140.135 345.661Z" fill="#FDE9D4"/>
<path d="M155.106 346.591C154.39 358.119 157.321 369.58 163.485 379.349C169.648 389.117 178.731 396.697 189.444 401.014C200.157 405.331 211.958 406.166 223.172 403.399C234.386 400.633 244.445 394.407 251.922 385.603C259.399 376.799 263.914 365.864 264.828 354.35C265.741 342.836 263.007 331.327 257.012 321.454C251.017 311.581 242.066 303.846 231.428 299.346C220.79 294.846 209.006 293.809 197.746 296.383L198.602 300.129C209.075 297.735 220.037 298.699 229.931 302.885C239.826 307.071 248.151 314.265 253.727 323.448C259.303 332.631 261.847 343.337 260.997 354.046C260.147 364.756 255.947 374.926 248.993 383.115C242.038 391.304 232.683 397.096 222.252 399.669C211.821 402.241 200.845 401.465 190.88 397.45C180.915 393.435 172.468 386.384 166.735 377.298C161.002 368.212 158.275 357.552 158.941 346.829L155.106 346.591Z" fill="#FE7167"/>
<path d="M170.077 347.521C169.556 355.905 171.688 364.24 176.171 371.344C180.653 378.449 187.259 383.962 195.05 387.101C202.842 390.241 211.424 390.848 219.58 388.836C227.735 386.824 235.051 382.296 240.489 375.893C245.926 369.49 249.21 361.538 249.875 353.164C250.539 344.79 248.55 336.419 244.19 329.239C239.83 322.059 233.321 316.433 225.584 313.161C217.848 309.888 209.277 309.134 201.088 311.005L201.711 313.73C209.328 311.989 217.299 312.69 224.495 315.735C231.691 318.779 237.746 324.011 241.802 330.69C245.857 337.368 247.707 345.154 247.089 352.943C246.471 360.732 243.416 368.128 238.358 374.084C233.301 380.039 226.496 384.251 218.91 386.123C211.324 387.994 203.342 387.429 196.095 384.509C188.848 381.589 182.704 376.461 178.534 369.853C174.365 363.245 172.382 355.492 172.866 347.694L170.077 347.521Z" fill="#FDE9D4"/>
<path d="M0 280H140V420H0L0 280Z" fill="#FFCC1A"/>
<path d="M60 383C60 396.807 48.8071 408 35 408C21.1929 408 10 396.807 10 383C10 369.193 21.1929 358 35 358C48.8071 358 60 369.193 60 383Z" fill="#FC8B4C"/>
<path d="M140 345.5V420H0L140 345.5Z" fill="#236967"/>
<path d="M35 280C41.0002 296.215 53.7848 309 70 315C53.7848 321 41.0002 333.785 35 350C28.9998 333.785 16.2152 321 0 315C16.2152 309 28.9998 296.215 35 280Z" fill="white"/>
<path d="M105 280C111 296.215 123.785 309 140 315C123.785 321 111 333.785 105 350C98.9998 333.785 86.2152 321 70 315C86.2152 309 98.9998 296.215 105 280Z" fill="white"/>
<path d="M35 300C37.5715 306.95 43.0506 312.429 50 315C43.0506 317.572 37.5715 323.051 35 330C32.4285 323.051 26.9494 317.572 20 315C26.9494 312.429 32.4285 306.95 35 300Z" fill="#236967"/>
<path d="M420 560H560V420H420V560Z" fill="#FE7167"/>
<path d="M490 465L460 515H520L490 465Z" fill="white"/>
<path d="M477 560H503V515H477V560Z" fill="black"/>
<path d="M500 440C500 434.477 495.523 430 490 430C484.477 430 480 434.477 480 440C480 445.523 484.477 450 490 450C495.523 450 500 445.523 500 440Z" fill="black"/>
<path d="M530 440C530 434.477 525.523 430 520 430C514.477 430 510 434.477 510 440C510 445.523 514.477 450 520 450C525.523 450 530 445.523 530 440Z" fill="black"/>
<path d="M470 440C470 434.477 465.523 430 460 430C454.477 430 450 434.477 450 440C450 445.523 454.477 450 460 450C465.523 450 470 445.523 470 440Z" fill="black"/>
<path d="M280 420H420V560H280V420Z" fill="#FDD503"/>
<path d="M285.91 436.516L296.517 425.91L338.943 468.336L328.337 478.943L285.91 436.516Z" fill="white"/>
<path d="M296.517 478.943L285.91 468.336L328.336 425.91L338.943 436.516L296.517 478.943Z" fill="white"/>
<path d="M285.91 511.369L296.517 500.763L338.943 543.189L328.337 553.796L285.91 511.369Z" fill="white"/>
<path d="M296.517 553.796L285.91 543.189L328.336 500.763L338.943 511.369L296.517 553.796Z" fill="white"/>
<path d="M360.763 436.516L371.369 425.91L413.796 468.336L403.189 478.943L360.763 436.516Z" fill="white"/>
<path d="M371.369 478.943L360.763 468.336L403.189 425.91L413.796 436.516L371.369 478.943Z" fill="white"/>
<path d="M360.763 511.369L371.369 500.763L413.796 543.189L403.189 553.796L360.763 511.369Z" fill="white"/>
<path d="M371.369 553.796L360.763 543.189L403.189 500.763L413.796 511.369L371.369 553.796Z" fill="white"/>
<path d="M280 490C280 508.565 272.625 526.37 259.497 539.497C246.37 552.625 228.565 560 210 560C191.435 560 173.63 552.625 160.503 539.497C147.375 526.37 140 508.565 140 490L210 490H280Z" fill="#FC8B4C"/>
<path d="M210 455C210 474.33 194.33 490 175 490C155.67 490 140 474.33 140 455C140 435.67 155.67 420 175 420C194.33 420 210 435.67 210 455Z" fill="#FFCC1A"/>
<path d="M280 455C280 474.33 264.33 490 245 490C225.67 490 210 474.33 210 455C210 435.67 225.67 420 245 420C264.33 420 280 435.67 280 455Z" fill="#236967"/>
<path d="M280 35C280 54.33 264.33 70 245 70C225.67 70 210 54.33 210 35C210 15.67 225.67 0 245 0C264.33 0 280 15.67 280 35Z" fill="#FFCC1A"/>
<path d="M280 105C280 124.33 264.33 140 245 140C225.67 140 210 124.33 210 105C210 85.67 225.67 70 245 70C264.33 70 280 85.67 280 105Z" fill="#236967"/>
<path d="M210 105C210 124.33 194.33 140 175 140C155.67 140 140 124.33 140 105C140 85.67 155.67 70 175 70C194.33 70 210 85.67 210 105Z" fill="#FC8B4C"/>
<path fill-rule="evenodd" clip-rule="evenodd" d="M175 132C189.912 132 202 119.912 202 105C202 90.0883 189.912 78 175 78C160.088 78 148 90.0883 148 105C148 119.912 160.088 132 175 132ZM175 140C194.33 140 210 124.33 210 105C210 85.67 194.33 70 175 70C155.67 70 140 85.67 140 105C140 124.33 155.67 140 175 140Z" fill="black"/>
<path fill-rule="evenodd" clip-rule="evenodd" d="M53 457C62.9411 457 71 448.941 71 439C71 429.059 62.9411 421 53 421C43.0589 421 35 429.059 35 439C35 448.941 43.0589 457 53 457ZM53 458C63.4934 458 72 449.493 72 439C72 428.507 63.4934 420 53 420C42.5066 420 34 428.507 34 439C34 449.493 42.5066 458 53 458Z" fill="#236967"/>
<path fill-rule="evenodd" clip-rule="evenodd" d="M87 457C96.9411 457 105 448.941 105 439C105 429.059 96.9411 421 87 421C77.0589 421 69 429.059 69 439C69 448.941 77.0589 457 87 457ZM87 458C97.4934 458 106 449.493 106 439C106 428.507 97.4934 420 87 420C76.5066 420 68 428.507 68 439C68 449.493 76.5066 458 87 458Z" fill="#236967"/>
<path fill-rule="evenodd" clip-rule="evenodd" d="M121 457C130.941 457 139 448.941 139 439C139 429.059 130.941 421 121 421C111.059 421 103 429.059 103 439C103 448.941 111.059 457 121 457ZM121 458C131.493 458 140 449.493 140 439C140 428.507 131.493 420 121 420C110.507 420 102 428.507 102 439C102 449.493 110.507 458 121 458Z" fill="#236967"/>
<path fill-rule="evenodd" clip-rule="evenodd" d="M121 491C130.941 491 139 482.941 139 473C139 463.059 130.941 455 121 455C111.059 455 103 463.059 103 473C103 482.941 111.059 491 121 491ZM121 492C131.493 492 140 483.493 140 473C140 462.507 131.493 454 121 454C110.507 454 102 462.507 102 473C102 483.493 110.507 492 121 492Z" fill="#236967"/>
<path fill-rule="evenodd" clip-rule="evenodd" d="M87 491C96.9411 491 105 482.941 105 473C105 463.059 96.9411 455 87 455C77.0589 455 69 463.059 69 473C69 482.941 77.0589 491 87 491ZM87 492C97.4934 492 106 483.493 106 473C106 462.507 97.4934 454 87 454C76.5066 454 68 462.507 68 473C68 483.493 76.5066 492 87 492Z" fill="#236967"/>
<path fill-rule="evenodd" clip-rule="evenodd" d="M121 526C130.941 526 139 517.941 139 508C139 498.059 130.941 490 121 490C111.059 490 103 498.059 103 508C103 517.941 111.059 526 121 526ZM121 527C131.493 527 140 518.493 140 508C140 497.507 131.493 489 121 489C110.507 489 102 497.507 102 508C102 518.493 110.507 527 121 527Z" fill="#236967"/>
<path fill-rule="evenodd" clip-rule="evenodd" d="M419.379 85.7412L524.372 137.198L563.853 278.927L556.147 281.073L517.628 142.802L420.621 95.2587L365.118 143.459L282.477 176.814L198.593 282.537L142.575 348.648L13.9298 419.504C13.3387 419.829 12.6748 420 12 420H0V412H10.9713L137.425 342.352L192.406 277.463L277.523 170.186L360.882 136.541L419.379 85.7412Z" fill="black"/>
</g>
<defs>
<clipPath id="clip0">
<rect width="560" height="560" fill="white"/>
</clipPath>
</defs>
</svg>
