<svg width="914" height="51" viewBox="0 0 914 51" fill="none" xmlns="http://www.w3.org/2000/svg">
<path fill-rule="evenodd" clip-rule="evenodd" d="M84 41C85.3062 41 86.4175 40.1652 86.8293 39H81.1707C81.5825 40.1652 82.6938 41 84 41ZM81.1707 37H86.8293C86.4175 35.8348 85.3062 35 84 35C82.6938 35 81.5825 35.8348 81.1707 37ZM84 33C86.419 33 88.4367 34.7178 88.9 37H185.1C185.563 34.7178 187.581 33 190 33C192.419 33 194.437 34.7178 194.9 37H291.1C291.563 34.7178 293.581 33 296 33C298.419 33 300.437 34.7178 300.9 37H397.1C397.563 34.7178 399.581 33 402 33C404.419 33 406.437 34.7178 406.9 37H504.1C504.563 34.7178 506.581 33 509 33C511.419 33 513.437 34.7178 513.9 37H611.1C611.563 34.7178 613.581 33 616 33C618.419 33 620.437 34.7178 620.9 37H718.1C718.563 34.7178 720.581 33 723 33C725.419 33 727.437 34.7178 727.9 37H825.1C825.563 34.7178 827.581 33 830 33C832.419 33 834.437 34.7178 834.9 37H914V39H834.9C834.437 41.2822 832.419 43 830 43C827.581 43 825.563 41.2822 825.1 39H727.9C727.437 41.2822 725.419 43 723 43C720.581 43 718.563 41.2822 718.1 39H620.9C620.437 41.2822 618.419 43 616 43C613.581 43 611.563 41.2822 611.1 39H513.9C513.437 41.2822 511.419 43 509 43C506.581 43 504.563 41.2822 504.1 39H406.9C406.437 41.2822 404.419 43 402 43C399.581 43 397.563 41.2822 397.1 39H300.9C300.437 41.2822 298.419 43 296 43C293.581 43 291.563 41.2822 291.1 39H194.9C194.437 41.2822 192.419 43 190 43C187.581 43 185.563 41.2822 185.1 39H88.9C88.4367 41.2822 86.419 43 84 43C81.581 43 79.5633 41.2822 79.1 39H0V37H79.1C79.5633 34.7178 81.581 33 84 33ZM613.171 39C613.583 40.1652 614.694 41 616 41C617.306 41 618.417 40.1652 618.829 39H613.171ZM618.829 37C618.417 35.8348 617.306 35 616 35C614.694 35 613.583 35.8348 613.171 37H618.829ZM723 41C721.694 41 720.583 40.1652 720.171 39H725.829C725.417 40.1652 724.306 41 723 41ZM720.171 37H725.829C725.417 35.8348 724.306 35 723 35C721.694 35 720.583 35.8348 720.171 37ZM827.171 39C827.583 40.1652 828.694 41 830 41C831.306 41 832.417 40.1652 832.829 39H827.171ZM832.829 37C832.417 35.8348 831.306 35 830 35C828.694 35 827.583 35.8348 827.171 37H832.829ZM509 41C507.694 41 506.583 40.1652 506.171 39H511.829C511.417 40.1652 510.306 41 509 41ZM506.171 37H511.829C511.417 35.8348 510.306 35 509 35C507.694 35 506.583 35.8348 506.171 37ZM399.171 39C399.583 40.1652 400.694 41 402 41C403.306 41 404.417 40.1652 404.829 39H399.171ZM404.829 37C404.417 35.8348 403.306 35 402 35C400.694 35 399.583 35.8348 399.171 37H404.829ZM296 41C294.694 41 293.583 40.1652 293.171 39H298.829C298.417 40.1652 297.306 41 296 41ZM293.171 37H298.829C298.417 35.8348 297.306 35 296 35C294.694 35 293.583 35.8348 293.171 37ZM187.171 39C187.583 40.1652 188.694 41 190 41C191.306 41 192.417 40.1652 192.829 39H187.171ZM192.829 37C192.417 35.8348 191.306 35 190 35C188.694 35 187.583 35.8348 187.171 37H192.829Z" fill="#689C9A"/>
<circle cx="616" cy="38" r="5" fill="#236967"/>
<g filter="url(#filter0_f_357:43)">
<circle cx="616" cy="38" r="5" fill="#236967"/>
</g>
<path d="M65.9212 19V18.696C65.9212 18.0133 65.9959 17.416 66.1452 16.904C66.2945 16.392 66.5025 15.944 66.7692 15.56C67.0465 15.176 67.3772 14.8453 67.7612 14.568C68.1559 14.2907 68.5879 14.0453 69.0572 13.832C69.4305 13.6613 69.8199 13.496 70.2252 13.336C70.6412 13.176 71.0199 12.9893 71.3612 12.776C71.7025 12.552 71.9852 12.28 72.2092 11.96C72.4332 11.64 72.5452 11.2293 72.5452 10.728C72.5452 10.408 72.4919 10.0987 72.3852 9.8C72.2785 9.50133 72.1132 9.24 71.8892 9.016C71.6759 8.78133 71.3985 8.59467 71.0572 8.456C70.7265 8.31733 70.3319 8.248 69.8732 8.248C69.4252 8.248 69.0252 8.312 68.6732 8.44C68.3212 8.55733 68.0065 8.70667 67.7292 8.888C67.4625 9.05867 67.2332 9.24533 67.0412 9.448C66.8599 9.64 66.7105 9.816 66.5932 9.976L66.0492 9.48C66.0812 9.42667 66.1879 9.29333 66.3692 9.08C66.5505 8.86667 66.8012 8.64267 67.1212 8.408C67.4519 8.17333 67.8519 7.96533 68.3212 7.784C68.7905 7.592 69.3345 7.496 69.9532 7.496C70.5292 7.496 71.0359 7.58667 71.4732 7.768C71.9105 7.94933 72.2732 8.18933 72.5612 8.488C72.8492 8.78667 73.0625 9.13333 73.2012 9.528C73.3505 9.912 73.4252 10.312 73.4252 10.728C73.4252 11.2933 73.3079 11.7733 73.0732 12.168C72.8385 12.5627 72.5399 12.8987 72.1772 13.176C71.8145 13.4533 71.4199 13.688 70.9932 13.88C70.5772 14.0613 70.1772 14.2213 69.7932 14.36C69.1532 14.6053 68.6412 14.8827 68.2572 15.192C67.8732 15.5013 67.5799 15.832 67.3772 16.184C67.1745 16.5253 67.0412 16.8773 66.9772 17.24C66.9132 17.592 66.8812 17.9333 66.8812 18.264H73.4412V19H65.9212ZM80.0687 19.16C79.3007 19.1387 78.6287 18.9467 78.0527 18.584C77.4767 18.2213 76.9967 17.7627 76.6127 17.208C76.2287 16.6533 75.9354 16.04 75.7327 15.368C75.5407 14.696 75.4447 14.04 75.4447 13.4C75.4447 12.7173 75.5514 12.0347 75.7647 11.352C75.978 10.6587 76.282 10.04 76.6767 9.496C77.082 8.94133 77.5674 8.49333 78.1327 8.152C78.7087 7.81067 79.354 7.64 80.0687 7.64C80.8367 7.64 81.5087 7.82667 82.0847 8.2C82.6607 8.56267 83.1407 9.02667 83.5247 9.592C83.9087 10.1573 84.1967 10.7813 84.3887 11.464C84.5914 12.136 84.6927 12.7813 84.6927 13.4C84.6927 14.0933 84.586 14.7813 84.3727 15.464C84.1594 16.1467 83.85 16.76 83.4447 17.304C83.05 17.848 82.5647 18.2907 81.9887 18.632C81.4234 18.9733 80.7834 19.1493 80.0687 19.16ZM76.2607 13.4C76.282 13.9867 76.378 14.5787 76.5487 15.176C76.7194 15.7627 76.9594 16.296 77.2687 16.776C77.5887 17.256 77.9834 17.6507 78.4527 17.96C78.922 18.2587 79.4607 18.408 80.0687 18.408C80.7087 18.408 81.2634 18.248 81.7327 17.928C82.2127 17.608 82.6074 17.2027 82.9167 16.712C83.2367 16.2107 83.4767 15.6667 83.6367 15.08C83.7967 14.4933 83.8767 13.9333 83.8767 13.4C83.8767 12.8133 83.7914 12.2267 83.6207 11.64C83.45 11.0427 83.1994 10.504 82.8687 10.024C82.538 9.544 82.138 9.15467 81.6687 8.856C81.1994 8.54667 80.666 8.392 80.0687 8.392C79.4287 8.392 78.8687 8.55733 78.3887 8.888C77.9194 9.208 77.5247 9.61333 77.2047 10.104C76.8847 10.5947 76.6447 11.1387 76.4847 11.736C76.3354 12.3227 76.2607 12.8773 76.2607 13.4ZM91.6522 18.264V19H86.6762V18.264H88.8202V8.44C88.7349 8.568 88.5962 8.712 88.4042 8.872C88.2122 9.02133 87.9935 9.17067 87.7482 9.32C87.5135 9.45867 87.2682 9.576 87.0122 9.672C86.7562 9.768 86.5215 9.816 86.3082 9.816V9.064C86.5855 9.064 86.8682 8.98933 87.1562 8.84C87.4549 8.68 87.7269 8.504 87.9722 8.312C88.2175 8.12 88.4149 7.944 88.5642 7.784C88.7242 7.61333 88.8095 7.51733 88.8202 7.496H89.6202V18.264H91.6522ZM101.165 15.272C101.165 15.816 101.064 16.3227 100.861 16.792C100.658 17.2613 100.376 17.672 100.013 18.024C99.6504 18.376 99.2237 18.6533 98.7331 18.856C98.2531 19.0587 97.7357 19.16 97.1811 19.16C96.5944 19.16 96.0504 19.0533 95.5491 18.84C95.0584 18.6267 94.6317 18.3227 94.2691 17.928C93.9171 17.5333 93.6397 17.0533 93.4371 16.488C93.2344 15.912 93.1331 15.2613 93.1331 14.536C93.1331 13.3413 93.2344 12.3067 93.4371 11.432C93.6397 10.5573 93.9224 9.832 94.2851 9.256C94.6477 8.68 95.0797 8.25333 95.5811 7.976C96.0931 7.69867 96.6531 7.56 97.2611 7.56C98.0291 7.56 98.7064 7.75733 99.2931 8.152C99.8904 8.54667 100.333 9.08533 100.621 9.768L100.061 10.2C99.8477 9.624 99.4851 9.16 98.9731 8.808C98.4611 8.456 97.8904 8.28 97.2611 8.28C96.7597 8.28 96.3011 8.40267 95.8851 8.648C95.4797 8.88267 95.1331 9.23467 94.8451 9.704C94.5571 10.1627 94.3277 10.728 94.1571 11.4C93.9971 12.072 93.9171 12.84 93.9171 13.704C94.0344 13.3627 94.2051 13.0533 94.4291 12.776C94.6531 12.488 94.9091 12.2427 95.1971 12.04C95.4957 11.8373 95.8211 11.6827 96.1731 11.576C96.5251 11.4587 96.8931 11.4 97.2771 11.4C97.8211 11.4 98.3277 11.5013 98.7971 11.704C99.2664 11.9067 99.6771 12.184 100.029 12.536C100.381 12.888 100.658 13.2987 100.861 13.768C101.064 14.2373 101.165 14.7387 101.165 15.272ZM97.1971 18.44C97.6344 18.44 98.0451 18.36 98.4291 18.2C98.8237 18.0293 99.1651 17.8 99.4531 17.512C99.7411 17.224 99.9704 16.888 100.141 16.504C100.312 16.12 100.397 15.7093 100.397 15.272C100.397 14.8347 100.312 14.424 100.141 14.04C99.9704 13.656 99.7411 13.32 99.4531 13.032C99.1651 12.744 98.8237 12.5147 98.4291 12.344C98.0451 12.1733 97.6344 12.088 97.1971 12.088C96.7597 12.088 96.3437 12.1733 95.9491 12.344C95.5651 12.5147 95.2291 12.744 94.9411 13.032C94.6531 13.32 94.4237 13.656 94.2531 14.04C94.0824 14.424 93.9971 14.8347 93.9971 15.272C93.9971 15.7093 94.0824 16.12 94.2531 16.504C94.4237 16.888 94.6531 17.224 94.9411 17.512C95.2291 17.8 95.5651 18.0293 95.9491 18.2C96.3437 18.36 96.7597 18.44 97.1971 18.44Z" fill="black"/>
<path d="M173.14 19V18.696C173.14 18.0133 173.215 17.416 173.364 16.904C173.513 16.392 173.721 15.944 173.988 15.56C174.265 15.176 174.596 14.8453 174.98 14.568C175.375 14.2907 175.807 14.0453 176.276 13.832C176.649 13.6613 177.039 13.496 177.444 13.336C177.86 13.176 178.239 12.9893 178.58 12.776C178.921 12.552 179.204 12.28 179.428 11.96C179.652 11.64 179.764 11.2293 179.764 10.728C179.764 10.408 179.711 10.0987 179.604 9.8C179.497 9.50133 179.332 9.24 179.108 9.016C178.895 8.78133 178.617 8.59467 178.276 8.456C177.945 8.31733 177.551 8.248 177.092 8.248C176.644 8.248 176.244 8.312 175.892 8.44C175.54 8.55733 175.225 8.70667 174.948 8.888C174.681 9.05867 174.452 9.24533 174.26 9.448C174.079 9.64 173.929 9.816 173.812 9.976L173.268 9.48C173.3 9.42667 173.407 9.29333 173.588 9.08C173.769 8.86667 174.02 8.64267 174.34 8.408C174.671 8.17333 175.071 7.96533 175.54 7.784C176.009 7.592 176.553 7.496 177.172 7.496C177.748 7.496 178.255 7.58667 178.692 7.768C179.129 7.94933 179.492 8.18933 179.78 8.488C180.068 8.78667 180.281 9.13333 180.42 9.528C180.569 9.912 180.644 10.312 180.644 10.728C180.644 11.2933 180.527 11.7733 180.292 12.168C180.057 12.5627 179.759 12.8987 179.396 13.176C179.033 13.4533 178.639 13.688 178.212 13.88C177.796 14.0613 177.396 14.2213 177.012 14.36C176.372 14.6053 175.86 14.8827 175.476 15.192C175.092 15.5013 174.799 15.832 174.596 16.184C174.393 16.5253 174.26 16.8773 174.196 17.24C174.132 17.592 174.1 17.9333 174.1 18.264H180.66V19H173.14ZM187.287 19.16C186.519 19.1387 185.847 18.9467 185.271 18.584C184.695 18.2213 184.215 17.7627 183.831 17.208C183.447 16.6533 183.154 16.04 182.951 15.368C182.759 14.696 182.663 14.04 182.663 13.4C182.663 12.7173 182.77 12.0347 182.983 11.352C183.197 10.6587 183.501 10.04 183.895 9.496C184.301 8.94133 184.786 8.49333 185.351 8.152C185.927 7.81067 186.573 7.64 187.287 7.64C188.055 7.64 188.727 7.82667 189.303 8.2C189.879 8.56267 190.359 9.02667 190.743 9.592C191.127 10.1573 191.415 10.7813 191.607 11.464C191.81 12.136 191.911 12.7813 191.911 13.4C191.911 14.0933 191.805 14.7813 191.591 15.464C191.378 16.1467 191.069 16.76 190.663 17.304C190.269 17.848 189.783 18.2907 189.207 18.632C188.642 18.9733 188.002 19.1493 187.287 19.16ZM183.479 13.4C183.501 13.9867 183.597 14.5787 183.767 15.176C183.938 15.7627 184.178 16.296 184.487 16.776C184.807 17.256 185.202 17.6507 185.671 17.96C186.141 18.2587 186.679 18.408 187.287 18.408C187.927 18.408 188.482 18.248 188.951 17.928C189.431 17.608 189.826 17.2027 190.135 16.712C190.455 16.2107 190.695 15.6667 190.855 15.08C191.015 14.4933 191.095 13.9333 191.095 13.4C191.095 12.8133 191.01 12.2267 190.839 11.64C190.669 11.0427 190.418 10.504 190.087 10.024C189.757 9.544 189.357 9.15467 188.887 8.856C188.418 8.54667 187.885 8.392 187.287 8.392C186.647 8.392 186.087 8.55733 185.607 8.888C185.138 9.208 184.743 9.61333 184.423 10.104C184.103 10.5947 183.863 11.1387 183.703 11.736C183.554 12.3227 183.479 12.8773 183.479 13.4ZM198.871 18.264V19H193.895V18.264H196.039V8.44C195.954 8.568 195.815 8.712 195.623 8.872C195.431 9.02133 195.212 9.17067 194.967 9.32C194.732 9.45867 194.487 9.576 194.231 9.672C193.975 9.768 193.74 9.816 193.527 9.816V9.064C193.804 9.064 194.087 8.98933 194.375 8.84C194.674 8.68 194.946 8.504 195.191 8.312C195.436 8.12 195.634 7.944 195.783 7.784C195.943 7.61333 196.028 7.51733 196.039 7.496H196.839V18.264H198.871ZM206.368 8.392H199.968V7.64H207.648L201.856 19H200.96L206.368 8.392Z" fill="black"/>
<path d="M278.007 19V18.696C278.007 18.0133 278.082 17.416 278.231 16.904C278.38 16.392 278.588 15.944 278.855 15.56C279.132 15.176 279.463 14.8453 279.847 14.568C280.242 14.2907 280.674 14.0453 281.143 13.832C281.516 13.6613 281.906 13.496 282.311 13.336C282.727 13.176 283.106 12.9893 283.447 12.776C283.788 12.552 284.071 12.28 284.295 11.96C284.519 11.64 284.631 11.2293 284.631 10.728C284.631 10.408 284.578 10.0987 284.471 9.8C284.364 9.50133 284.199 9.24 283.975 9.016C283.762 8.78133 283.484 8.59467 283.143 8.456C282.812 8.31733 282.418 8.248 281.959 8.248C281.511 8.248 281.111 8.312 280.759 8.44C280.407 8.55733 280.092 8.70667 279.815 8.888C279.548 9.05867 279.319 9.24533 279.127 9.448C278.946 9.64 278.796 9.816 278.679 9.976L278.135 9.48C278.167 9.42667 278.274 9.29333 278.455 9.08C278.636 8.86667 278.887 8.64267 279.207 8.408C279.538 8.17333 279.938 7.96533 280.407 7.784C280.876 7.592 281.42 7.496 282.039 7.496C282.615 7.496 283.122 7.58667 283.559 7.768C283.996 7.94933 284.359 8.18933 284.647 8.488C284.935 8.78667 285.148 9.13333 285.287 9.528C285.436 9.912 285.511 10.312 285.511 10.728C285.511 11.2933 285.394 11.7733 285.159 12.168C284.924 12.5627 284.626 12.8987 284.263 13.176C283.9 13.4533 283.506 13.688 283.079 13.88C282.663 14.0613 282.263 14.2213 281.879 14.36C281.239 14.6053 280.727 14.8827 280.343 15.192C279.959 15.5013 279.666 15.832 279.463 16.184C279.26 16.5253 279.127 16.8773 279.063 17.24C278.999 17.592 278.967 17.9333 278.967 18.264H285.527V19H278.007ZM292.155 19.16C291.387 19.1387 290.715 18.9467 290.139 18.584C289.563 18.2213 289.083 17.7627 288.699 17.208C288.315 16.6533 288.021 16.04 287.819 15.368C287.627 14.696 287.531 14.04 287.531 13.4C287.531 12.7173 287.637 12.0347 287.851 11.352C288.064 10.6587 288.368 10.04 288.763 9.496C289.168 8.94133 289.653 8.49333 290.219 8.152C290.795 7.81067 291.44 7.64 292.155 7.64C292.923 7.64 293.595 7.82667 294.171 8.2C294.747 8.56267 295.227 9.02667 295.611 9.592C295.995 10.1573 296.283 10.7813 296.475 11.464C296.677 12.136 296.779 12.7813 296.779 13.4C296.779 14.0933 296.672 14.7813 296.459 15.464C296.245 16.1467 295.936 16.76 295.531 17.304C295.136 17.848 294.651 18.2907 294.075 18.632C293.509 18.9733 292.869 19.1493 292.155 19.16ZM288.347 13.4C288.368 13.9867 288.464 14.5787 288.635 15.176C288.805 15.7627 289.045 16.296 289.355 16.776C289.675 17.256 290.069 17.6507 290.539 17.96C291.008 18.2587 291.547 18.408 292.155 18.408C292.795 18.408 293.349 18.248 293.819 17.928C294.299 17.608 294.693 17.2027 295.003 16.712C295.323 16.2107 295.563 15.6667 295.723 15.08C295.883 14.4933 295.963 13.9333 295.963 13.4C295.963 12.8133 295.877 12.2267 295.707 11.64C295.536 11.0427 295.285 10.504 294.955 10.024C294.624 9.544 294.224 9.15467 293.755 8.856C293.285 8.54667 292.752 8.392 292.155 8.392C291.515 8.392 290.955 8.55733 290.475 8.888C290.005 9.208 289.611 9.61333 289.291 10.104C288.971 10.5947 288.731 11.1387 288.571 11.736C288.421 12.3227 288.347 12.8773 288.347 13.4ZM303.738 18.264V19H298.762V18.264H300.906V8.44C300.821 8.568 300.682 8.712 300.49 8.872C300.298 9.02133 300.079 9.17067 299.834 9.32C299.599 9.45867 299.354 9.576 299.098 9.672C298.842 9.768 298.607 9.816 298.394 9.816V9.064C298.671 9.064 298.954 8.98933 299.242 8.84C299.541 8.68 299.813 8.504 300.058 8.312C300.303 8.12 300.501 7.944 300.65 7.784C300.81 7.61333 300.895 7.51733 300.906 7.496H301.706V18.264H303.738ZM312.947 15.896C312.947 16.3867 312.84 16.8293 312.627 17.224C312.414 17.6187 312.126 17.96 311.763 18.248C311.411 18.5253 310.995 18.7387 310.515 18.888C310.035 19.0373 309.534 19.112 309.011 19.112C308.446 19.112 307.923 19.0267 307.443 18.856C306.974 18.6747 306.568 18.44 306.227 18.152C305.896 17.8533 305.635 17.5067 305.443 17.112C305.262 16.7173 305.171 16.296 305.171 15.848C305.171 15.4747 305.24 15.128 305.379 14.808C305.518 14.488 305.699 14.2053 305.923 13.96C306.158 13.704 306.419 13.4907 306.707 13.32C306.995 13.1387 307.288 13 307.587 12.904C307.31 12.808 307.048 12.68 306.803 12.52C306.568 12.36 306.355 12.1787 306.163 11.976C305.982 11.7733 305.838 11.544 305.731 11.288C305.624 11.032 305.571 10.76 305.571 10.472C305.571 10.0133 305.672 9.608 305.875 9.256C306.088 8.904 306.36 8.61067 306.691 8.376C307.022 8.13067 307.395 7.94933 307.811 7.832C308.238 7.704 308.659 7.64 309.075 7.64C309.491 7.64 309.907 7.704 310.323 7.832C310.739 7.94933 311.112 8.13067 311.443 8.376C311.774 8.61067 312.04 8.904 312.243 9.256C312.456 9.59733 312.563 9.99733 312.563 10.456C312.563 10.7547 312.504 11.032 312.387 11.288C312.28 11.5333 312.136 11.7627 311.955 11.976C311.774 12.1787 311.555 12.36 311.299 12.52C311.054 12.68 310.798 12.808 310.531 12.904C310.862 13.0213 311.176 13.176 311.475 13.368C311.774 13.5493 312.03 13.768 312.243 14.024C312.456 14.28 312.627 14.568 312.755 14.888C312.883 15.1973 312.947 15.5333 312.947 15.896ZM312.147 15.832C312.147 15.4267 312.051 15.064 311.859 14.744C311.678 14.424 311.438 14.1573 311.139 13.944C310.84 13.72 310.504 13.5493 310.131 13.432C309.768 13.3147 309.406 13.256 309.043 13.256C308.67 13.256 308.302 13.32 307.939 13.448C307.576 13.5653 307.251 13.736 306.963 13.96C306.675 14.184 306.44 14.456 306.259 14.776C306.078 15.096 305.987 15.4533 305.987 15.848C305.987 16.2533 306.078 16.616 306.259 16.936C306.451 17.2453 306.696 17.512 306.995 17.736C307.294 17.9493 307.624 18.1147 307.987 18.232C308.36 18.3493 308.728 18.408 309.091 18.408C309.454 18.408 309.816 18.3493 310.179 18.232C310.552 18.104 310.883 17.928 311.171 17.704C311.459 17.48 311.694 17.2133 311.875 16.904C312.056 16.584 312.147 16.2267 312.147 15.832ZM306.387 10.504C306.387 10.8453 306.467 11.144 306.627 11.4C306.798 11.656 307.011 11.8747 307.267 12.056C307.523 12.2373 307.806 12.376 308.115 12.472C308.435 12.5573 308.75 12.6 309.059 12.6C309.368 12.6 309.683 12.552 310.003 12.456C310.323 12.36 310.611 12.2213 310.867 12.04C311.123 11.8587 311.331 11.64 311.491 11.384C311.662 11.1173 311.747 10.8133 311.747 10.472C311.747 10.1413 311.667 9.848 311.507 9.592C311.358 9.32533 311.155 9.10667 310.899 8.936C310.654 8.75467 310.366 8.616 310.035 8.52C309.715 8.424 309.384 8.376 309.043 8.376C308.702 8.376 308.371 8.424 308.051 8.52C307.731 8.616 307.448 8.76 307.203 8.952C306.958 9.13333 306.76 9.35733 306.611 9.624C306.462 9.88 306.387 10.1733 306.387 10.504Z" fill="black"/>
<path d="M383.921 19V18.696C383.921 18.0133 383.996 17.416 384.145 16.904C384.295 16.392 384.503 15.944 384.769 15.56C385.047 15.176 385.377 14.8453 385.761 14.568C386.156 14.2907 386.588 14.0453 387.057 13.832C387.431 13.6613 387.82 13.496 388.225 13.336C388.641 13.176 389.02 12.9893 389.361 12.776C389.703 12.552 389.985 12.28 390.209 11.96C390.433 11.64 390.545 11.2293 390.545 10.728C390.545 10.408 390.492 10.0987 390.385 9.8C390.279 9.50133 390.113 9.24 389.889 9.016C389.676 8.78133 389.399 8.59467 389.057 8.456C388.727 8.31733 388.332 8.248 387.873 8.248C387.425 8.248 387.025 8.312 386.673 8.44C386.321 8.55733 386.007 8.70667 385.729 8.888C385.463 9.05867 385.233 9.24533 385.041 9.448C384.86 9.64 384.711 9.816 384.593 9.976L384.049 9.48C384.081 9.42667 384.188 9.29333 384.369 9.08C384.551 8.86667 384.801 8.64267 385.121 8.408C385.452 8.17333 385.852 7.96533 386.321 7.784C386.791 7.592 387.335 7.496 387.953 7.496C388.529 7.496 389.036 7.58667 389.473 7.768C389.911 7.94933 390.273 8.18933 390.561 8.488C390.849 8.78667 391.063 9.13333 391.201 9.528C391.351 9.912 391.425 10.312 391.425 10.728C391.425 11.2933 391.308 11.7733 391.073 12.168C390.839 12.5627 390.54 12.8987 390.177 13.176C389.815 13.4533 389.42 13.688 388.993 13.88C388.577 14.0613 388.177 14.2213 387.793 14.36C387.153 14.6053 386.641 14.8827 386.257 15.192C385.873 15.5013 385.58 15.832 385.377 16.184C385.175 16.5253 385.041 16.8773 384.977 17.24C384.913 17.592 384.881 17.9333 384.881 18.264H391.441V19H383.921ZM398.069 19.16C397.301 19.1387 396.629 18.9467 396.053 18.584C395.477 18.2213 394.997 17.7627 394.613 17.208C394.229 16.6533 393.935 16.04 393.733 15.368C393.541 14.696 393.445 14.04 393.445 13.4C393.445 12.7173 393.551 12.0347 393.765 11.352C393.978 10.6587 394.282 10.04 394.677 9.496C395.082 8.94133 395.567 8.49333 396.133 8.152C396.709 7.81067 397.354 7.64 398.069 7.64C398.837 7.64 399.509 7.82667 400.085 8.2C400.661 8.56267 401.141 9.02667 401.525 9.592C401.909 10.1573 402.197 10.7813 402.389 11.464C402.591 12.136 402.693 12.7813 402.693 13.4C402.693 14.0933 402.586 14.7813 402.373 15.464C402.159 16.1467 401.85 16.76 401.445 17.304C401.05 17.848 400.565 18.2907 399.989 18.632C399.423 18.9733 398.783 19.1493 398.069 19.16ZM394.261 13.4C394.282 13.9867 394.378 14.5787 394.549 15.176C394.719 15.7627 394.959 16.296 395.269 16.776C395.589 17.256 395.983 17.6507 396.453 17.96C396.922 18.2587 397.461 18.408 398.069 18.408C398.709 18.408 399.263 18.248 399.733 17.928C400.213 17.608 400.607 17.2027 400.917 16.712C401.237 16.2107 401.477 15.6667 401.637 15.08C401.797 14.4933 401.877 13.9333 401.877 13.4C401.877 12.8133 401.791 12.2267 401.621 11.64C401.45 11.0427 401.199 10.504 400.869 10.024C400.538 9.544 400.138 9.15467 399.669 8.856C399.199 8.54667 398.666 8.392 398.069 8.392C397.429 8.392 396.869 8.55733 396.389 8.888C395.919 9.208 395.525 9.61333 395.205 10.104C394.885 10.5947 394.645 11.1387 394.485 11.736C394.335 12.3227 394.261 12.8773 394.261 13.4ZM409.652 18.264V19H404.676V18.264H406.82V8.44C406.735 8.568 406.596 8.712 406.404 8.872C406.212 9.02133 405.994 9.17067 405.748 9.32C405.514 9.45867 405.268 9.576 405.012 9.672C404.756 9.768 404.522 9.816 404.308 9.816V9.064C404.586 9.064 404.868 8.98933 405.156 8.84C405.455 8.68 405.727 8.504 405.972 8.312C406.218 8.12 406.415 7.944 406.564 7.784C406.724 7.61333 406.81 7.51733 406.82 7.496H407.62V18.264H409.652ZM410.957 11.448C410.957 10.904 411.058 10.3973 411.261 9.928C411.474 9.45867 411.757 9.048 412.109 8.696C412.472 8.344 412.893 8.06667 413.373 7.864C413.864 7.66133 414.392 7.56 414.957 7.56C415.544 7.56 416.082 7.66667 416.573 7.88C417.064 8.09333 417.49 8.39733 417.853 8.792C418.216 9.18667 418.498 9.672 418.701 10.248C418.904 10.824 419.005 11.4693 419.005 12.184C419.005 13.368 418.904 14.3973 418.701 15.272C418.498 16.1467 418.216 16.872 417.853 17.448C417.49 18.024 417.053 18.456 416.541 18.744C416.04 19.0213 415.485 19.16 414.877 19.16C414.109 19.16 413.426 18.9627 412.829 18.568C412.242 18.1733 411.805 17.6347 411.517 16.952L412.077 16.52C412.29 17.096 412.653 17.56 413.165 17.912C413.677 18.2533 414.248 18.424 414.877 18.424C415.378 18.424 415.832 18.3067 416.237 18.072C416.653 17.8267 417.005 17.4747 417.293 17.016C417.592 16.5467 417.821 15.9813 417.981 15.32C418.141 14.648 418.221 13.88 418.221 13.016C418.104 13.3573 417.933 13.672 417.709 13.96C417.485 14.2373 417.224 14.4773 416.925 14.68C416.637 14.8827 416.317 15.0427 415.965 15.16C415.613 15.2667 415.245 15.32 414.861 15.32C414.317 15.32 413.805 15.2187 413.325 15.016C412.856 14.8133 412.445 14.536 412.093 14.184C411.741 13.832 411.464 13.4213 411.261 12.952C411.058 12.4827 410.957 11.9813 410.957 11.448ZM414.925 8.264C414.488 8.264 414.077 8.34933 413.693 8.52C413.309 8.69067 412.973 8.92 412.685 9.208C412.397 9.496 412.168 9.832 411.997 10.216C411.826 10.6 411.741 11.0053 411.741 11.432C411.741 11.8693 411.826 12.2853 411.997 12.68C412.168 13.064 412.397 13.4 412.685 13.688C412.984 13.976 413.325 14.2053 413.709 14.376C414.093 14.5467 414.504 14.632 414.941 14.632C415.378 14.632 415.789 14.5467 416.173 14.376C416.568 14.2053 416.909 13.976 417.197 13.688C417.496 13.4 417.73 13.064 417.901 12.68C418.072 12.296 418.157 11.8853 418.157 11.448C418.157 11.0213 418.072 10.616 417.901 10.232C417.73 9.83733 417.496 9.496 417.197 9.208C416.909 8.92 416.568 8.69067 416.173 8.52C415.778 8.34933 415.362 8.264 414.925 8.264Z" fill="black"/>
<path d="M489.273 19V18.696C489.273 18.0133 489.347 17.416 489.497 16.904C489.646 16.392 489.854 15.944 490.121 15.56C490.398 15.176 490.729 14.8453 491.113 14.568C491.507 14.2907 491.939 14.0453 492.409 13.832C492.782 13.6613 493.171 13.496 493.577 13.336C493.993 13.176 494.371 12.9893 494.713 12.776C495.054 12.552 495.337 12.28 495.561 11.96C495.785 11.64 495.897 11.2293 495.897 10.728C495.897 10.408 495.843 10.0987 495.737 9.8C495.63 9.50133 495.465 9.24 495.241 9.016C495.027 8.78133 494.75 8.59467 494.409 8.456C494.078 8.31733 493.683 8.248 493.225 8.248C492.777 8.248 492.377 8.312 492.025 8.44C491.673 8.55733 491.358 8.70667 491.081 8.888C490.814 9.05867 490.585 9.24533 490.393 9.448C490.211 9.64 490.062 9.816 489.945 9.976L489.401 9.48C489.433 9.42667 489.539 9.29333 489.721 9.08C489.902 8.86667 490.153 8.64267 490.473 8.408C490.803 8.17333 491.203 7.96533 491.673 7.784C492.142 7.592 492.686 7.496 493.305 7.496C493.881 7.496 494.387 7.58667 494.825 7.768C495.262 7.94933 495.625 8.18933 495.913 8.488C496.201 8.78667 496.414 9.13333 496.553 9.528C496.702 9.912 496.777 10.312 496.777 10.728C496.777 11.2933 496.659 11.7733 496.425 12.168C496.19 12.5627 495.891 12.8987 495.529 13.176C495.166 13.4533 494.771 13.688 494.345 13.88C493.929 14.0613 493.529 14.2213 493.145 14.36C492.505 14.6053 491.993 14.8827 491.609 15.192C491.225 15.5013 490.931 15.832 490.729 16.184C490.526 16.5253 490.393 16.8773 490.329 17.24C490.265 17.592 490.233 17.9333 490.233 18.264H496.793V19H489.273ZM503.42 19.16C502.652 19.1387 501.98 18.9467 501.404 18.584C500.828 18.2213 500.348 17.7627 499.964 17.208C499.58 16.6533 499.287 16.04 499.084 15.368C498.892 14.696 498.796 14.04 498.796 13.4C498.796 12.7173 498.903 12.0347 499.116 11.352C499.33 10.6587 499.634 10.04 500.028 9.496C500.434 8.94133 500.919 8.49333 501.484 8.152C502.06 7.81067 502.706 7.64 503.42 7.64C504.188 7.64 504.86 7.82667 505.436 8.2C506.012 8.56267 506.492 9.02667 506.876 9.592C507.26 10.1573 507.548 10.7813 507.74 11.464C507.943 12.136 508.044 12.7813 508.044 13.4C508.044 14.0933 507.938 14.7813 507.724 15.464C507.511 16.1467 507.202 16.76 506.796 17.304C506.402 17.848 505.916 18.2907 505.34 18.632C504.775 18.9733 504.135 19.1493 503.42 19.16ZM499.612 13.4C499.634 13.9867 499.73 14.5787 499.9 15.176C500.071 15.7627 500.311 16.296 500.62 16.776C500.94 17.256 501.335 17.6507 501.804 17.96C502.274 18.2587 502.812 18.408 503.42 18.408C504.06 18.408 504.615 18.248 505.084 17.928C505.564 17.608 505.959 17.2027 506.268 16.712C506.588 16.2107 506.828 15.6667 506.988 15.08C507.148 14.4933 507.228 13.9333 507.228 13.4C507.228 12.8133 507.143 12.2267 506.972 11.64C506.802 11.0427 506.551 10.504 506.22 10.024C505.89 9.544 505.49 9.15467 505.02 8.856C504.551 8.54667 504.018 8.392 503.42 8.392C502.78 8.392 502.22 8.55733 501.74 8.888C501.271 9.208 500.876 9.61333 500.556 10.104C500.236 10.5947 499.996 11.1387 499.836 11.736C499.687 12.3227 499.612 12.8773 499.612 13.4ZM509.944 19V18.696C509.944 18.0133 510.019 17.416 510.168 16.904C510.317 16.392 510.525 15.944 510.792 15.56C511.069 15.176 511.4 14.8453 511.784 14.568C512.179 14.2907 512.611 14.0453 513.08 13.832C513.453 13.6613 513.843 13.496 514.248 13.336C514.664 13.176 515.043 12.9893 515.384 12.776C515.725 12.552 516.008 12.28 516.232 11.96C516.456 11.64 516.568 11.2293 516.568 10.728C516.568 10.408 516.515 10.0987 516.408 9.8C516.301 9.50133 516.136 9.24 515.912 9.016C515.699 8.78133 515.421 8.59467 515.08 8.456C514.749 8.31733 514.355 8.248 513.896 8.248C513.448 8.248 513.048 8.312 512.696 8.44C512.344 8.55733 512.029 8.70667 511.752 8.888C511.485 9.05867 511.256 9.24533 511.064 9.448C510.883 9.64 510.733 9.816 510.616 9.976L510.072 9.48C510.104 9.42667 510.211 9.29333 510.392 9.08C510.573 8.86667 510.824 8.64267 511.144 8.408C511.475 8.17333 511.875 7.96533 512.344 7.784C512.813 7.592 513.357 7.496 513.976 7.496C514.552 7.496 515.059 7.58667 515.496 7.768C515.933 7.94933 516.296 8.18933 516.584 8.488C516.872 8.78667 517.085 9.13333 517.224 9.528C517.373 9.912 517.448 10.312 517.448 10.728C517.448 11.2933 517.331 11.7733 517.096 12.168C516.861 12.5627 516.563 12.8987 516.2 13.176C515.837 13.4533 515.443 13.688 515.016 13.88C514.6 14.0613 514.2 14.2213 513.816 14.36C513.176 14.6053 512.664 14.8827 512.28 15.192C511.896 15.5013 511.603 15.832 511.4 16.184C511.197 16.5253 511.064 16.8773 511 17.24C510.936 17.592 510.904 17.9333 510.904 18.264H517.464V19H509.944ZM524.091 19.16C523.323 19.1387 522.651 18.9467 522.075 18.584C521.499 18.2213 521.019 17.7627 520.635 17.208C520.251 16.6533 519.958 16.04 519.755 15.368C519.563 14.696 519.467 14.04 519.467 13.4C519.467 12.7173 519.574 12.0347 519.787 11.352C520.001 10.6587 520.305 10.04 520.699 9.496C521.105 8.94133 521.59 8.49333 522.155 8.152C522.731 7.81067 523.377 7.64 524.091 7.64C524.859 7.64 525.531 7.82667 526.108 8.2C526.684 8.56267 527.164 9.02667 527.547 9.592C527.931 10.1573 528.219 10.7813 528.411 11.464C528.614 12.136 528.715 12.7813 528.715 13.4C528.715 14.0933 528.609 14.7813 528.396 15.464C528.182 16.1467 527.873 16.76 527.467 17.304C527.073 17.848 526.587 18.2907 526.011 18.632C525.446 18.9733 524.806 19.1493 524.091 19.16ZM520.283 13.4C520.305 13.9867 520.401 14.5787 520.571 15.176C520.742 15.7627 520.982 16.296 521.291 16.776C521.611 17.256 522.006 17.6507 522.475 17.96C522.945 18.2587 523.483 18.408 524.091 18.408C524.731 18.408 525.286 18.248 525.755 17.928C526.236 17.608 526.63 17.2027 526.939 16.712C527.26 16.2107 527.5 15.6667 527.66 15.08C527.819 14.4933 527.899 13.9333 527.899 13.4C527.899 12.8133 527.814 12.2267 527.644 11.64C527.473 11.0427 527.222 10.504 526.891 10.024C526.561 9.544 526.161 9.15467 525.691 8.856C525.222 8.54667 524.689 8.392 524.091 8.392C523.451 8.392 522.891 8.55733 522.411 8.888C521.942 9.208 521.547 9.61333 521.227 10.104C520.907 10.5947 520.667 11.1387 520.507 11.736C520.358 12.3227 520.283 12.8773 520.283 13.4Z" fill="black"/>
<path d="M598.046 19V18.696C598.046 18.0133 598.121 17.416 598.27 16.904C598.42 16.392 598.628 15.944 598.894 15.56C599.172 15.176 599.502 14.8453 599.886 14.568C600.281 14.2907 600.713 14.0453 601.182 13.832C601.556 13.6613 601.945 13.496 602.35 13.336C602.766 13.176 603.145 12.9893 603.486 12.776C603.828 12.552 604.11 12.28 604.334 11.96C604.558 11.64 604.67 11.2293 604.67 10.728C604.67 10.408 604.617 10.0987 604.51 9.8C604.404 9.50133 604.238 9.24 604.014 9.016C603.801 8.78133 603.524 8.59467 603.182 8.456C602.852 8.31733 602.457 8.248 601.998 8.248C601.55 8.248 601.15 8.312 600.798 8.44C600.446 8.55733 600.132 8.70667 599.854 8.888C599.588 9.05867 599.358 9.24533 599.166 9.448C598.985 9.64 598.836 9.816 598.718 9.976L598.174 9.48C598.206 9.42667 598.313 9.29333 598.494 9.08C598.676 8.86667 598.926 8.64267 599.246 8.408C599.577 8.17333 599.977 7.96533 600.446 7.784C600.916 7.592 601.46 7.496 602.078 7.496C602.654 7.496 603.161 7.58667 603.598 7.768C604.036 7.94933 604.398 8.18933 604.686 8.488C604.974 8.78667 605.188 9.13333 605.326 9.528C605.476 9.912 605.55 10.312 605.55 10.728C605.55 11.2933 605.433 11.7733 605.198 12.168C604.964 12.5627 604.665 12.8987 604.302 13.176C603.94 13.4533 603.545 13.688 603.118 13.88C602.702 14.0613 602.302 14.2213 601.918 14.36C601.278 14.6053 600.766 14.8827 600.382 15.192C599.998 15.5013 599.705 15.832 599.502 16.184C599.3 16.5253 599.166 16.8773 599.102 17.24C599.038 17.592 599.006 17.9333 599.006 18.264H605.566V19H598.046ZM612.194 19.16C611.426 19.1387 610.754 18.9467 610.178 18.584C609.602 18.2213 609.122 17.7627 608.738 17.208C608.354 16.6533 608.06 16.04 607.858 15.368C607.666 14.696 607.57 14.04 607.57 13.4C607.57 12.7173 607.676 12.0347 607.89 11.352C608.103 10.6587 608.407 10.04 608.802 9.496C609.207 8.94133 609.692 8.49333 610.258 8.152C610.834 7.81067 611.479 7.64 612.194 7.64C612.962 7.64 613.634 7.82667 614.21 8.2C614.786 8.56267 615.266 9.02667 615.65 9.592C616.034 10.1573 616.322 10.7813 616.514 11.464C616.716 12.136 616.818 12.7813 616.818 13.4C616.818 14.0933 616.711 14.7813 616.498 15.464C616.284 16.1467 615.975 16.76 615.57 17.304C615.175 17.848 614.69 18.2907 614.114 18.632C613.548 18.9733 612.908 19.1493 612.194 19.16ZM608.386 13.4C608.407 13.9867 608.503 14.5787 608.674 15.176C608.844 15.7627 609.084 16.296 609.394 16.776C609.714 17.256 610.108 17.6507 610.578 17.96C611.047 18.2587 611.586 18.408 612.194 18.408C612.834 18.408 613.388 18.248 613.858 17.928C614.338 17.608 614.732 17.2027 615.042 16.712C615.362 16.2107 615.602 15.6667 615.762 15.08C615.922 14.4933 616.002 13.9333 616.002 13.4C616.002 12.8133 615.916 12.2267 615.746 11.64C615.575 11.0427 615.324 10.504 614.994 10.024C614.663 9.544 614.263 9.15467 613.794 8.856C613.324 8.54667 612.791 8.392 612.194 8.392C611.554 8.392 610.994 8.55733 610.514 8.888C610.044 9.208 609.65 9.61333 609.33 10.104C609.01 10.5947 608.77 11.1387 608.61 11.736C608.46 12.3227 608.386 12.8773 608.386 13.4ZM618.717 19V18.696C618.717 18.0133 618.792 17.416 618.941 16.904C619.091 16.392 619.299 15.944 619.565 15.56C619.843 15.176 620.173 14.8453 620.557 14.568C620.952 14.2907 621.384 14.0453 621.853 13.832C622.227 13.6613 622.616 13.496 623.021 13.336C623.437 13.176 623.816 12.9893 624.157 12.776C624.499 12.552 624.781 12.28 625.005 11.96C625.229 11.64 625.341 11.2293 625.341 10.728C625.341 10.408 625.288 10.0987 625.181 9.8C625.075 9.50133 624.909 9.24 624.685 9.016C624.472 8.78133 624.195 8.59467 623.853 8.456C623.523 8.31733 623.128 8.248 622.669 8.248C622.221 8.248 621.821 8.312 621.469 8.44C621.117 8.55733 620.803 8.70667 620.525 8.888C620.259 9.05867 620.029 9.24533 619.837 9.448C619.656 9.64 619.507 9.816 619.389 9.976L618.845 9.48C618.877 9.42667 618.984 9.29333 619.165 9.08C619.347 8.86667 619.597 8.64267 619.917 8.408C620.248 8.17333 620.648 7.96533 621.117 7.784C621.587 7.592 622.131 7.496 622.749 7.496C623.325 7.496 623.832 7.58667 624.269 7.768C624.707 7.94933 625.069 8.18933 625.357 8.488C625.645 8.78667 625.859 9.13333 625.997 9.528C626.147 9.912 626.221 10.312 626.221 10.728C626.221 11.2933 626.104 11.7733 625.869 12.168C625.635 12.5627 625.336 12.8987 624.973 13.176C624.611 13.4533 624.216 13.688 623.789 13.88C623.373 14.0613 622.973 14.2213 622.589 14.36C621.949 14.6053 621.437 14.8827 621.053 15.192C620.669 15.5013 620.376 15.832 620.173 16.184C619.971 16.5253 619.837 16.8773 619.773 17.24C619.709 17.592 619.677 17.9333 619.677 18.264H626.237V19H618.717ZM633.441 18.264V19H628.465V18.264H630.609V8.44C630.524 8.568 630.385 8.712 630.193 8.872C630.001 9.02133 629.782 9.17067 629.537 9.32C629.302 9.45867 629.057 9.576 628.801 9.672C628.545 9.768 628.31 9.816 628.097 9.816V9.064C628.374 9.064 628.657 8.98933 628.945 8.84C629.244 8.68 629.516 8.504 629.761 8.312C630.006 8.12 630.204 7.944 630.353 7.784C630.513 7.61333 630.598 7.51733 630.609 7.496H631.409V18.264H633.441Z" fill="black"/>
<path d="M811.023 19V18.696C811.023 18.0133 811.097 17.416 811.247 16.904C811.396 16.392 811.604 15.944 811.871 15.56C812.148 15.176 812.479 14.8453 812.863 14.568C813.257 14.2907 813.689 14.0453 814.159 13.832C814.532 13.6613 814.921 13.496 815.327 13.336C815.743 13.176 816.121 12.9893 816.463 12.776C816.804 12.552 817.087 12.28 817.311 11.96C817.535 11.64 817.647 11.2293 817.647 10.728C817.647 10.408 817.593 10.0987 817.487 9.8C817.38 9.50133 817.215 9.24 816.991 9.016C816.777 8.78133 816.5 8.59467 816.159 8.456C815.828 8.31733 815.433 8.248 814.975 8.248C814.527 8.248 814.127 8.312 813.775 8.44C813.423 8.55733 813.108 8.70667 812.831 8.888C812.564 9.05867 812.335 9.24533 812.143 9.448C811.961 9.64 811.812 9.816 811.695 9.976L811.151 9.48C811.183 9.42667 811.289 9.29333 811.471 9.08C811.652 8.86667 811.903 8.64267 812.223 8.408C812.553 8.17333 812.953 7.96533 813.423 7.784C813.892 7.592 814.436 7.496 815.055 7.496C815.631 7.496 816.137 7.58667 816.575 7.768C817.012 7.94933 817.375 8.18933 817.663 8.488C817.951 8.78667 818.164 9.13333 818.303 9.528C818.452 9.912 818.527 10.312 818.527 10.728C818.527 11.2933 818.409 11.7733 818.175 12.168C817.94 12.5627 817.641 12.8987 817.279 13.176C816.916 13.4533 816.521 13.688 816.095 13.88C815.679 14.0613 815.279 14.2213 814.895 14.36C814.255 14.6053 813.743 14.8827 813.359 15.192C812.975 15.5013 812.681 15.832 812.479 16.184C812.276 16.5253 812.143 16.8773 812.079 17.24C812.015 17.592 811.983 17.9333 811.983 18.264H818.543V19H811.023ZM825.17 19.16C824.402 19.1387 823.73 18.9467 823.154 18.584C822.578 18.2213 822.098 17.7627 821.714 17.208C821.33 16.6533 821.037 16.04 820.834 15.368C820.642 14.696 820.546 14.04 820.546 13.4C820.546 12.7173 820.653 12.0347 820.866 11.352C821.08 10.6587 821.384 10.04 821.778 9.496C822.184 8.94133 822.669 8.49333 823.234 8.152C823.81 7.81067 824.456 7.64 825.17 7.64C825.938 7.64 826.61 7.82667 827.186 8.2C827.762 8.56267 828.242 9.02667 828.626 9.592C829.01 10.1573 829.298 10.7813 829.49 11.464C829.693 12.136 829.794 12.7813 829.794 13.4C829.794 14.0933 829.688 14.7813 829.474 15.464C829.261 16.1467 828.952 16.76 828.546 17.304C828.152 17.848 827.666 18.2907 827.09 18.632C826.525 18.9733 825.885 19.1493 825.17 19.16ZM821.362 13.4C821.384 13.9867 821.48 14.5787 821.65 15.176C821.821 15.7627 822.061 16.296 822.37 16.776C822.69 17.256 823.085 17.6507 823.554 17.96C824.024 18.2587 824.562 18.408 825.17 18.408C825.81 18.408 826.365 18.248 826.834 17.928C827.314 17.608 827.709 17.2027 828.018 16.712C828.338 16.2107 828.578 15.6667 828.738 15.08C828.898 14.4933 828.978 13.9333 828.978 13.4C828.978 12.8133 828.893 12.2267 828.722 11.64C828.552 11.0427 828.301 10.504 827.97 10.024C827.64 9.544 827.24 9.15467 826.77 8.856C826.301 8.54667 825.768 8.392 825.17 8.392C824.53 8.392 823.97 8.55733 823.49 8.888C823.021 9.208 822.626 9.61333 822.306 10.104C821.986 10.5947 821.746 11.1387 821.586 11.736C821.437 12.3227 821.362 12.8773 821.362 13.4ZM831.694 19V18.696C831.694 18.0133 831.769 17.416 831.918 16.904C832.067 16.392 832.275 15.944 832.542 15.56C832.819 15.176 833.15 14.8453 833.534 14.568C833.929 14.2907 834.361 14.0453 834.83 13.832C835.203 13.6613 835.593 13.496 835.998 13.336C836.414 13.176 836.793 12.9893 837.134 12.776C837.475 12.552 837.758 12.28 837.982 11.96C838.206 11.64 838.318 11.2293 838.318 10.728C838.318 10.408 838.265 10.0987 838.158 9.8C838.051 9.50133 837.886 9.24 837.662 9.016C837.449 8.78133 837.171 8.59467 836.83 8.456C836.499 8.31733 836.105 8.248 835.646 8.248C835.198 8.248 834.798 8.312 834.446 8.44C834.094 8.55733 833.779 8.70667 833.502 8.888C833.235 9.05867 833.006 9.24533 832.814 9.448C832.633 9.64 832.483 9.816 832.366 9.976L831.822 9.48C831.854 9.42667 831.961 9.29333 832.142 9.08C832.323 8.86667 832.574 8.64267 832.894 8.408C833.225 8.17333 833.625 7.96533 834.094 7.784C834.563 7.592 835.107 7.496 835.726 7.496C836.302 7.496 836.809 7.58667 837.246 7.768C837.683 7.94933 838.046 8.18933 838.334 8.488C838.622 8.78667 838.835 9.13333 838.974 9.528C839.123 9.912 839.198 10.312 839.198 10.728C839.198 11.2933 839.081 11.7733 838.846 12.168C838.611 12.5627 838.313 12.8987 837.95 13.176C837.587 13.4533 837.193 13.688 836.766 13.88C836.35 14.0613 835.95 14.2213 835.566 14.36C834.926 14.6053 834.414 14.8827 834.03 15.192C833.646 15.5013 833.353 15.832 833.15 16.184C832.947 16.5253 832.814 16.8773 832.75 17.24C832.686 17.592 832.654 17.9333 832.654 18.264H839.214V19H831.694ZM845.041 19.144C844.519 19.144 844.033 19.08 843.585 18.952C843.137 18.8133 842.743 18.6213 842.401 18.376C842.071 18.1307 841.799 17.8373 841.585 17.496C841.383 17.1547 841.26 16.7813 841.217 16.376L841.761 16.008C841.783 16.3173 841.879 16.616 842.049 16.904C842.22 17.192 842.449 17.448 842.737 17.672C843.025 17.8853 843.361 18.0613 843.745 18.2C844.14 18.328 844.572 18.392 845.041 18.392C845.479 18.392 845.884 18.3333 846.257 18.216C846.631 18.0987 846.951 17.9333 847.217 17.72C847.495 17.5067 847.708 17.256 847.858 16.968C848.017 16.68 848.097 16.36 848.097 16.008C848.097 15.6347 848.007 15.2987 847.826 15C847.655 14.6907 847.404 14.4347 847.073 14.232C846.753 14.0187 846.359 13.8587 845.889 13.752C845.431 13.6347 844.919 13.576 844.353 13.576H843.793V12.856H844.353C845.452 12.856 846.3 12.6747 846.898 12.312C847.495 11.9387 847.793 11.3947 847.793 10.68C847.793 10.3173 847.719 9.98667 847.569 9.688C847.42 9.38933 847.212 9.13333 846.945 8.92C846.689 8.696 846.385 8.52533 846.033 8.408C845.681 8.29067 845.303 8.232 844.897 8.232C844.183 8.232 843.564 8.392 843.041 8.712C842.519 9.02133 842.151 9.42667 841.937 9.928L841.345 9.416C841.484 9.11733 841.671 8.85067 841.905 8.616C842.151 8.38133 842.428 8.184 842.737 8.024C843.057 7.85333 843.399 7.72533 843.761 7.64C844.124 7.544 844.503 7.496 844.897 7.496C845.431 7.496 845.927 7.576 846.385 7.736C846.844 7.896 847.239 8.12 847.569 8.408C847.9 8.68533 848.156 9.016 848.338 9.4C848.529 9.784 848.625 10.2 848.625 10.648C848.625 11.3093 848.433 11.8533 848.049 12.28C847.665 12.7067 847.105 13.0107 846.369 13.192C846.753 13.2667 847.1 13.3947 847.409 13.576C847.729 13.7467 848.001 13.96 848.226 14.216C848.449 14.472 848.62 14.76 848.738 15.08C848.865 15.4 848.929 15.736 848.929 16.088C848.929 16.5467 848.823 16.9627 848.609 17.336C848.407 17.7093 848.129 18.0293 847.777 18.296C847.425 18.5627 847.015 18.7707 846.545 18.92C846.076 19.0693 845.575 19.144 845.041 19.144Z" fill="black"/>
<path d="M704.101 19V18.696C704.101 18.0133 704.176 17.416 704.325 16.904C704.474 16.392 704.682 15.944 704.949 15.56C705.226 15.176 705.557 14.8453 705.941 14.568C706.336 14.2907 706.768 14.0453 707.237 13.832C707.61 13.6613 708 13.496 708.405 13.336C708.821 13.176 709.2 12.9893 709.541 12.776C709.882 12.552 710.165 12.28 710.389 11.96C710.613 11.64 710.725 11.2293 710.725 10.728C710.725 10.408 710.672 10.0987 710.565 9.8C710.458 9.50133 710.293 9.24 710.069 9.016C709.856 8.78133 709.578 8.59467 709.237 8.456C708.906 8.31733 708.512 8.248 708.053 8.248C707.605 8.248 707.205 8.312 706.853 8.44C706.501 8.55733 706.186 8.70667 705.909 8.888C705.642 9.05867 705.413 9.24533 705.221 9.448C705.04 9.64 704.89 9.816 704.773 9.976L704.229 9.48C704.261 9.42667 704.368 9.29333 704.549 9.08C704.73 8.86667 704.981 8.64267 705.301 8.408C705.632 8.17333 706.032 7.96533 706.501 7.784C706.97 7.592 707.514 7.496 708.133 7.496C708.709 7.496 709.216 7.58667 709.653 7.768C710.09 7.94933 710.453 8.18933 710.741 8.488C711.029 8.78667 711.242 9.13333 711.381 9.528C711.53 9.912 711.605 10.312 711.605 10.728C711.605 11.2933 711.488 11.7733 711.253 12.168C711.018 12.5627 710.72 12.8987 710.357 13.176C709.994 13.4533 709.6 13.688 709.173 13.88C708.757 14.0613 708.357 14.2213 707.973 14.36C707.333 14.6053 706.821 14.8827 706.437 15.192C706.053 15.5013 705.76 15.832 705.557 16.184C705.354 16.5253 705.221 16.8773 705.157 17.24C705.093 17.592 705.061 17.9333 705.061 18.264H711.621V19H704.101ZM718.248 19.16C717.48 19.1387 716.808 18.9467 716.232 18.584C715.656 18.2213 715.176 17.7627 714.792 17.208C714.408 16.6533 714.115 16.04 713.912 15.368C713.72 14.696 713.624 14.04 713.624 13.4C713.624 12.7173 713.731 12.0347 713.944 11.352C714.158 10.6587 714.462 10.04 714.856 9.496C715.262 8.94133 715.747 8.49333 716.312 8.152C716.888 7.81067 717.534 7.64 718.248 7.64C719.016 7.64 719.688 7.82667 720.264 8.2C720.84 8.56267 721.32 9.02667 721.704 9.592C722.088 10.1573 722.376 10.7813 722.568 11.464C722.771 12.136 722.872 12.7813 722.872 13.4C722.872 14.0933 722.766 14.7813 722.552 15.464C722.339 16.1467 722.03 16.76 721.624 17.304C721.23 17.848 720.744 18.2907 720.168 18.632C719.603 18.9733 718.963 19.1493 718.248 19.16ZM714.44 13.4C714.462 13.9867 714.558 14.5787 714.728 15.176C714.899 15.7627 715.139 16.296 715.448 16.776C715.768 17.256 716.163 17.6507 716.632 17.96C717.102 18.2587 717.64 18.408 718.248 18.408C718.888 18.408 719.443 18.248 719.912 17.928C720.392 17.608 720.787 17.2027 721.096 16.712C721.416 16.2107 721.656 15.6667 721.816 15.08C721.976 14.4933 722.056 13.9333 722.056 13.4C722.056 12.8133 721.971 12.2267 721.8 11.64C721.63 11.0427 721.379 10.504 721.048 10.024C720.718 9.544 720.318 9.15467 719.848 8.856C719.379 8.54667 718.846 8.392 718.248 8.392C717.608 8.392 717.048 8.55733 716.568 8.888C716.099 9.208 715.704 9.61333 715.384 10.104C715.064 10.5947 714.824 11.1387 714.664 11.736C714.515 12.3227 714.44 12.8773 714.44 13.4ZM724.772 19V18.696C724.772 18.0133 724.847 17.416 724.996 16.904C725.145 16.392 725.353 15.944 725.62 15.56C725.897 15.176 726.228 14.8453 726.612 14.568C727.007 14.2907 727.439 14.0453 727.908 13.832C728.281 13.6613 728.671 13.496 729.076 13.336C729.492 13.176 729.871 12.9893 730.212 12.776C730.553 12.552 730.836 12.28 731.06 11.96C731.284 11.64 731.396 11.2293 731.396 10.728C731.396 10.408 731.343 10.0987 731.236 9.8C731.129 9.50133 730.964 9.24 730.74 9.016C730.527 8.78133 730.249 8.59467 729.908 8.456C729.577 8.31733 729.183 8.248 728.724 8.248C728.276 8.248 727.876 8.312 727.524 8.44C727.172 8.55733 726.857 8.70667 726.58 8.888C726.313 9.05867 726.084 9.24533 725.892 9.448C725.711 9.64 725.561 9.816 725.444 9.976L724.9 9.48C724.932 9.42667 725.039 9.29333 725.22 9.08C725.401 8.86667 725.652 8.64267 725.972 8.408C726.303 8.17333 726.703 7.96533 727.172 7.784C727.641 7.592 728.185 7.496 728.804 7.496C729.38 7.496 729.887 7.58667 730.324 7.768C730.761 7.94933 731.124 8.18933 731.412 8.488C731.7 8.78667 731.913 9.13333 732.052 9.528C732.201 9.912 732.276 10.312 732.276 10.728C732.276 11.2933 732.159 11.7733 731.924 12.168C731.689 12.5627 731.391 12.8987 731.028 13.176C730.665 13.4533 730.271 13.688 729.844 13.88C729.428 14.0613 729.028 14.2213 728.644 14.36C728.004 14.6053 727.492 14.8827 727.108 15.192C726.724 15.5013 726.431 15.832 726.228 16.184C726.025 16.5253 725.892 16.8773 725.828 17.24C725.764 17.592 725.732 17.9333 725.732 18.264H732.292V19H724.772ZM734.28 19V18.696C734.28 18.0133 734.354 17.416 734.504 16.904C734.653 16.392 734.861 15.944 735.128 15.56C735.405 15.176 735.736 14.8453 736.12 14.568C736.514 14.2907 736.946 14.0453 737.416 13.832C737.789 13.6613 738.178 13.496 738.584 13.336C739 13.176 739.378 12.9893 739.72 12.776C740.061 12.552 740.344 12.28 740.568 11.96C740.792 11.64 740.904 11.2293 740.904 10.728C740.904 10.408 740.85 10.0987 740.744 9.8C740.637 9.50133 740.472 9.24 740.248 9.016C740.034 8.78133 739.757 8.59467 739.416 8.456C739.085 8.31733 738.69 8.248 738.232 8.248C737.784 8.248 737.384 8.312 737.032 8.44C736.68 8.55733 736.365 8.70667 736.088 8.888C735.821 9.05867 735.592 9.24533 735.4 9.448C735.218 9.64 735.069 9.816 734.952 9.976L734.408 9.48C734.44 9.42667 734.546 9.29333 734.728 9.08C734.909 8.86667 735.16 8.64267 735.48 8.408C735.81 8.17333 736.21 7.96533 736.68 7.784C737.149 7.592 737.693 7.496 738.312 7.496C738.888 7.496 739.394 7.58667 739.832 7.768C740.269 7.94933 740.632 8.18933 740.92 8.488C741.208 8.78667 741.421 9.13333 741.56 9.528C741.709 9.912 741.784 10.312 741.784 10.728C741.784 11.2933 741.666 11.7733 741.432 12.168C741.197 12.5627 740.898 12.8987 740.536 13.176C740.173 13.4533 739.778 13.688 739.352 13.88C738.936 14.0613 738.536 14.2213 738.152 14.36C737.512 14.6053 737 14.8827 736.616 15.192C736.232 15.5013 735.938 15.832 735.736 16.184C735.533 16.5253 735.4 16.8773 735.336 17.24C735.272 17.592 735.24 17.9333 735.24 18.264H741.8V19H734.28Z" fill="black"/>
<defs>
<filter id="filter0_f_357:43" x="603" y="25" width="26" height="26" filterUnits="userSpaceOnUse" color-interpolation-filters="sRGB">
<feFlood flood-opacity="0" result="BackgroundImageFix"/>
<feBlend mode="normal" in="SourceGraphic" in2="BackgroundImageFix" result="shape"/>
<feGaussianBlur stdDeviation="4" result="effect1_foregroundBlur_357:43"/>
</filter>
</defs>
</svg>
