<svg width="60" height="65" viewBox="0 0 60 65" fill="none" xmlns="http://www.w3.org/2000/svg">
<path d="M0.895703 65L27.9857 37.55C30.8057 34.55 32.9957 32.03 34.5557 29.99C36.1757 27.89 36.9857 25.61 36.9857 23.15C36.9857 21.59 36.4757 20.21 35.4557 19.01C34.4357 17.81 32.7857 17.21 30.5057 17.21C28.2857 17.21 26.4557 18.11 25.0157 19.91C23.6357 21.65 22.9457 23.78 22.9457 26.3H3.5957C3.5957 21.8 4.6157 17.6 6.6557 13.7C8.6957 9.8 11.7557 6.65 15.8357 4.25C19.9757 1.79 25.1057 0.559998 31.2257 0.559998C36.8057 0.559998 41.5457 1.58 45.4457 3.62C49.3457 5.66 52.3157 8.3 54.3557 11.54C56.4557 14.72 57.5057 18.11 57.5057 21.71C57.5057 25.19 56.6357 28.28 54.8957 30.98C53.1557 33.62 50.8457 36.05 47.9657 38.27L36.6257 47H59.7557V65H0.895703Z" fill="#FFECA0"/>
</svg>
