<svg width="56" height="16" viewBox="0 0 56 16" fill="none" xmlns="http://www.w3.org/2000/svg">
<path fill-rule="evenodd" clip-rule="evenodd" d="M8 16C12.4183 16 16 12.4183 16 8C16 3.58172 12.4183 0 8 0C3.58172 0 0 3.58172 0 8C0 12.4183 3.58172 16 8 16ZM20 8C20 7.44775 20.4477 7 21 7H25C25.5523 7 26 7.44775 26 8C26 8.55225 25.5523 9 25 9H21C20.4477 9 20 8.55225 20 8ZM50 8C50 7.44775 50.4477 7 51 7H55C55.5523 7 56 7.44775 56 8C56 8.55225 55.5523 9 55 9H51C50.4477 9 50 8.55225 50 8ZM31 7C30.4477 7 30 7.44775 30 8C30 8.55225 30.4477 9 31 9H35C35.5523 9 36 8.55225 36 8C36 7.44775 35.5523 7 35 7H31ZM40 8C40 7.44775 40.4477 7 41 7H45C45.5523 7 46 7.44775 46 8C46 8.55225 45.5523 9 45 9H41C40.4477 9 40 8.55225 40 8Z" fill="#FC8B4C"/>
</svg>
