<svg width="186" height="16" viewBox="0 0 186 16" fill="none" xmlns="http://www.w3.org/2000/svg">
<path fill-rule="evenodd" clip-rule="evenodd" d="M8 16C12.4183 16 16 12.4183 16 8C16 3.58172 12.4183 0 8 0C3.58172 0 0 3.58172 0 8C0 12.4183 3.58172 16 8 16ZM20 8C20 7.44775 20.4477 7 21 7H25C25.5523 7 26 7.44775 26 8C26 8.55225 25.5523 9 25 9H21C20.4477 9 20 8.55225 20 8ZM51 7C50.4477 7 50 7.44775 50 8C50 8.55225 50.4477 9 51 9H55C55.5523 9 56 8.55225 56 8C56 7.44775 55.5523 7 55 7H51ZM81 7C80.4477 7 80 7.44775 80 8C80 8.55225 80.4477 9 81 9H85C85.5523 9 86 8.55225 86 8C86 7.44775 85.5523 7 85 7H81ZM130 8C130 7.44775 130.448 7 131 7H135C135.552 7 136 7.44775 136 8C136 8.55225 135.552 9 135 9H131C130.448 9 130 8.55225 130 8ZM111 7C110.448 7 110 7.44775 110 8C110 8.55225 110.448 9 111 9H115C115.552 9 116 8.55225 116 8C116 7.44775 115.552 7 115 7H111ZM160 8C160 7.44775 160.448 7 161 7H165C165.552 7 166 7.44775 166 8C166 8.55225 165.552 9 165 9H161C160.448 9 160 8.55225 160 8ZM61 7C60.4477 7 60 7.44775 60 8C60 8.55225 60.4477 9 61 9H65C65.5523 9 66 8.55225 66 8C66 7.44775 65.5523 7 65 7H61ZM91 7C90.4477 7 90 7.44775 90 8C90 8.55225 90.4477 9 91 9H95C95.5523 9 96 8.55225 96 8C96 7.44775 95.5523 7 95 7H91ZM140 8C140 7.44775 140.448 7 141 7H145C145.552 7 146 7.44775 146 8C146 8.55225 145.552 9 145 9H141C140.448 9 140 8.55225 140 8ZM121 7C120.448 7 120 7.44775 120 8C120 8.55225 120.448 9 121 9H125C125.552 9 126 8.55225 126 8C126 7.44775 125.552 7 125 7H121ZM170 8C170 7.44775 170.448 7 171 7H175C175.552 7 176 7.44775 176 8C176 8.55225 175.552 9 175 9H171C170.448 9 170 8.55225 170 8ZM181 7C180.448 7 180 7.44775 180 8C180 8.55225 180.448 9 181 9H185C185.552 9 186 8.55225 186 8C186 7.44775 185.552 7 185 7H181ZM70 8C70 7.44775 70.4477 7 71 7H75C75.5523 7 76 7.44775 76 8C76 8.55225 75.5523 9 75 9H71C70.4477 9 70 8.55225 70 8ZM101 7C100.448 7 100 7.44775 100 8C100 8.55225 100.448 9 101 9H105C105.552 9 106 8.55225 106 8C106 7.44775 105.552 7 105 7H101ZM150 8C150 7.44775 150.448 7 151 7H155C155.552 7 156 7.44775 156 8C156 8.55225 155.552 9 155 9H151C150.448 9 150 8.55225 150 8ZM31 7C30.4477 7 30 7.44775 30 8C30 8.55225 30.4477 9 31 9H35C35.5523 9 36 8.55225 36 8C36 7.44775 35.5523 7 35 7H31ZM40 8C40 7.44775 40.4477 7 41 7H45C45.5523 7 46 7.44775 46 8C46 8.55225 45.5523 9 45 9H41C40.4477 9 40 8.55225 40 8Z" fill="#FC8B4C"/>
</svg>
