<svg width="226" height="16" viewBox="0 0 226 16" fill="none" xmlns="http://www.w3.org/2000/svg">
<path fill-rule="evenodd" clip-rule="evenodd" d="M8 16C12.4183 16 16 12.4183 16 8C16 3.58172 12.4183 0 8 0C3.58172 0 0 3.58172 0 8C0 12.4183 3.58172 16 8 16ZM21 7C20.4477 7 20 7.44772 20 8C20 8.55228 20.4477 9 21 9H25C25.5523 9 26 8.55228 26 8C26 7.44772 25.5523 7 25 7H21ZM51 7C50.4477 7 50 7.44772 50 8C50 8.55228 50.4477 9 51 9H55C55.5523 9 56 8.55228 56 8C56 7.44772 55.5523 7 55 7H51ZM81 7C80.4477 7 80 7.44772 80 8C80 8.55228 80.4477 9 81 9H85C85.5523 9 86 8.55228 86 8C86 7.44772 85.5523 7 85 7H81ZM130 8C130 7.44772 130.448 7 131 7H135C135.552 7 136 7.44772 136 8C136 8.55228 135.552 9 135 9H131C130.448 9 130 8.55228 130 8ZM111 7C110.448 7 110 7.44772 110 8C110 8.55228 110.448 9 111 9H115C115.552 9 116 8.55228 116 8C116 7.44772 115.552 7 115 7H111ZM160 8C160 7.44772 160.448 7 161 7H165C165.552 7 166 7.44772 166 8C166 8.55228 165.552 9 165 9H161C160.448 9 160 8.55228 160 8ZM201 7C200.448 7 200 7.44772 200 8C200 8.55228 200.448 9 201 9H205C205.552 9 206 8.55228 206 8C206 7.44772 205.552 7 205 7H201ZM60 8C60 7.44772 60.4477 7 61 7H65C65.5523 7 66 7.44772 66 8C66 8.55228 65.5523 9 65 9H61C60.4477 9 60 8.55228 60 8ZM90 8C90 7.44772 90.4477 7 91 7H95C95.5523 7 96 7.44772 96 8C96 8.55228 95.5523 9 95 9H91C90.4477 9 90 8.55228 90 8ZM141 7C140.448 7 140 7.44772 140 8C140 8.55228 140.448 9 141 9H145C145.552 9 146 8.55228 146 8C146 7.44772 145.552 7 145 7H141ZM120 8C120 7.44772 120.448 7 121 7H125C125.552 7 126 7.44772 126 8C126 8.55228 125.552 9 125 9H121C120.448 9 120 8.55228 120 8ZM171 7C170.448 7 170 7.44772 170 8C170 8.55228 170.448 9 171 9H175C175.552 9 176 8.55228 176 8C176 7.44772 175.552 7 175 7H171ZM210 8C210 7.44772 210.448 7 211 7H215C215.552 7 216 7.44772 216 8C216 8.55228 215.552 9 215 9H211C210.448 9 210 8.55228 210 8ZM181 7C180.448 7 180 7.44772 180 8C180 8.55228 180.448 9 181 9H185C185.552 9 186 8.55228 186 8C186 7.44772 185.552 7 185 7H181ZM220 8C220 7.44772 220.448 7 221 7H225C225.552 7 226 7.44772 226 8C226 8.55228 225.552 9 225 9H221C220.448 9 220 8.55228 220 8ZM71 7C70.4477 7 70 7.44772 70 8C70 8.55228 70.4477 9 71 9H75C75.5523 9 76 8.55228 76 8C76 7.44772 75.5523 7 75 7H71ZM100 8C100 7.44772 100.448 7 101 7H105C105.552 7 106 7.44772 106 8C106 8.55228 105.552 9 105 9H101C100.448 9 100 8.55228 100 8ZM151 7C150.448 7 150 7.44772 150 8C150 8.55228 150.448 9 151 9H155C155.552 9 156 8.55228 156 8C156 7.44772 155.552 7 155 7H151ZM190 8C190 7.44772 190.448 7 191 7H195C195.552 7 196 7.44772 196 8C196 8.55228 195.552 9 195 9H191C190.448 9 190 8.55228 190 8ZM31 7C30.4477 7 30 7.44772 30 8C30 8.55228 30.4477 9 31 9H35C35.5523 9 36 8.55228 36 8C36 7.44772 35.5523 7 35 7H31ZM40 8C40 7.44772 40.4477 7 41 7H45C45.5523 7 46 7.44772 46 8C46 8.55228 45.5523 9 45 9H41C40.4477 9 40 8.55228 40 8Z" fill="#038192"/>
</svg>
