<svg width="146" height="16" viewBox="0 0 146 16" fill="none" xmlns="http://www.w3.org/2000/svg">
<path fill-rule="evenodd" clip-rule="evenodd" d="M8 16C12.4183 16 16 12.4183 16 8C16 3.58172 12.4183 0 8 0C3.58172 0 0 3.58172 0 8C0 12.4183 3.58172 16 8 16ZM21 7C20.4477 7 20 7.44772 20 8C20 8.55228 20.4477 9 21 9H25C25.5523 9 26 8.55228 26 8C26 7.44772 25.5523 7 25 7H21ZM51 7C50.4477 7 50 7.44772 50 8C50 8.55228 50.4477 9 51 9H55C55.5523 9 56 8.55228 56 8C56 7.44772 55.5523 7 55 7H51ZM81 7C80.4477 7 80 7.44772 80 8C80 8.55228 80.4477 9 81 9H85C85.5523 9 86 8.55228 86 8C86 7.44772 85.5523 7 85 7H81ZM110 8C110 7.44772 110.448 7 111 7H115C115.552 7 116 7.44772 116 8C116 8.55228 115.552 9 115 9H111C110.448 9 110 8.55228 110 8ZM141 7C140.448 7 140 7.44772 140 8C140 8.55228 140.448 9 141 9H145C145.552 9 146 8.55228 146 8C146 7.44772 145.552 7 145 7H141ZM60 8C60 7.44772 60.4477 7 61 7H65C65.5523 7 66 7.44772 66 8C66 8.55228 65.5523 9 65 9H61C60.4477 9 60 8.55228 60 8ZM90 8C90 7.44772 90.4477 7 91 7H95C95.5523 7 96 7.44772 96 8C96 8.55228 95.5523 9 95 9H91C90.4477 9 90 8.55228 90 8ZM121 7C120.448 7 120 7.44772 120 8C120 8.55228 120.448 9 121 9H125C125.552 9 126 8.55228 126 8C126 7.44772 125.552 7 125 7H121ZM70 8C70 7.44772 70.4477 7 71 7H75C75.5523 7 76 7.44772 76 8C76 8.55228 75.5523 9 75 9H71C70.4477 9 70 8.55228 70 8ZM101 7C100.448 7 100 7.44772 100 8C100 8.55228 100.448 9 101 9H105C105.552 9 106 8.55228 106 8C106 7.44772 105.552 7 105 7H101ZM130 8C130 7.44772 130.448 7 131 7H135C135.552 7 136 7.44772 136 8C136 8.55228 135.552 9 135 9H131C130.448 9 130 8.55228 130 8ZM31 7C30.4477 7 30 7.44772 30 8C30 8.55228 30.4477 9 31 9H35C35.5523 9 36 8.55228 36 8C36 7.44772 35.5523 7 35 7H31ZM40 8C40 7.44772 40.4477 7 41 7H45C45.5523 7 46 7.44772 46 8C46 8.55228 45.5523 9 45 9H41C40.4477 9 40 8.55228 40 8Z" fill="#FE7167"/>
</svg>
