<svg width="126" height="16" viewBox="0 0 126 16" fill="none" xmlns="http://www.w3.org/2000/svg">
<path fill-rule="evenodd" clip-rule="evenodd" d="M8 16C12.4183 16 16 12.4183 16 8C16 3.58172 12.4183 0 8 0C3.58172 0 0 3.58172 0 8C0 12.4183 3.58172 16 8 16ZM20 8C20 7.44775 20.4477 7 21 7H25C25.5523 7 26 7.44775 26 8C26 8.55225 25.5523 9 25 9H21C20.4477 9 20 8.55225 20 8ZM51 7C50.4477 7 50 7.44775 50 8C50 8.55225 50.4477 9 51 9H55C55.5523 9 56 8.55225 56 8C56 7.44775 55.5523 7 55 7H51ZM81 7C80.4477 7 80 7.44775 80 8C80 8.55225 80.4477 9 81 9H85C85.5523 9 86 8.55225 86 8C86 7.44775 85.5523 7 85 7H81ZM110 8C110 7.44775 110.448 7 111 7H115C115.552 7 116 7.44775 116 8C116 8.55225 115.552 9 115 9H111C110.448 9 110 8.55225 110 8ZM61 7C60.4477 7 60 7.44775 60 8C60 8.55225 60.4477 9 61 9H65C65.5523 9 66 8.55225 66 8C66 7.44775 65.5523 7 65 7H61ZM91 7C90.4477 7 90 7.44775 90 8C90 8.55225 90.4477 9 91 9H95C95.5523 9 96 8.55225 96 8C96 7.44775 95.5523 7 95 7H91ZM120 8C120 7.44775 120.448 7 121 7H125C125.552 7 126 7.44775 126 8C126 8.55225 125.552 9 125 9H121C120.448 9 120 8.55225 120 8ZM71 7C70.4477 7 70 7.44775 70 8C70 8.55225 70.4477 9 71 9H75C75.5523 9 76 8.55225 76 8C76 7.44775 75.5523 7 75 7H71ZM100 8C100 7.44775 100.448 7 101 7H105C105.552 7 106 7.44775 106 8C106 8.55225 105.552 9 105 9H101C100.448 9 100 8.55225 100 8ZM31 7C30.4477 7 30 7.44775 30 8C30 8.55225 30.4477 9 31 9H35C35.5523 9 36 8.55225 36 8C36 7.44775 35.5523 7 35 7H31ZM40 8C40 7.44775 40.4477 7 41 7H45C45.5523 7 46 7.44775 46 8C46 8.55225 45.5523 9 45 9H41C40.4477 9 40 8.55225 40 8Z" fill="#FDD503"/>
</svg>
