<svg width="66" height="16" viewBox="0 0 66 16" fill="none" xmlns="http://www.w3.org/2000/svg">
<path fill-rule="evenodd" clip-rule="evenodd" d="M8 16C12.4183 16 16 12.4183 16 8C16 3.58172 12.4183 0 8 0C3.58172 0 0 3.58172 0 8C0 12.4183 3.58172 16 8 16ZM21 7C20.4477 7 20 7.44775 20 8C20 8.55225 20.4477 9 21 9H25C25.5523 9 26 8.55225 26 8C26 7.44775 25.5523 7 25 7H21ZM51 7C50.4477 7 50 7.44775 50 8C50 8.55225 50.4477 9 51 9H55C55.5523 9 56 8.55225 56 8C56 7.44775 55.5523 7 55 7H51ZM30 8C30 7.44775 30.4477 7 31 7H35C35.5523 7 36 7.44775 36 8C36 8.55225 35.5523 9 35 9H31C30.4477 9 30 8.55225 30 8ZM61 7C60.4477 7 60 7.44775 60 8C60 8.55225 60.4477 9 61 9H65C65.5523 9 66 8.55225 66 8C66 7.44775 65.5523 7 65 7H61ZM40 8C40 7.44775 40.4477 7 41 7H45C45.5523 7 46 7.44775 46 8C46 8.55225 45.5523 9 45 9H41C40.4477 9 40 8.55225 40 8Z" fill="#236967"/>
</svg>
