<svg width="56" height="67" viewBox="0 0 56 67" fill="none" xmlns="http://www.w3.org/2000/svg">
<path d="M27.4493 66.8C23.1893 66.8 19.3793 66.14 16.0193 64.82C12.7193 63.5 9.9293 61.7 7.6493 59.42C5.3693 57.14 3.6293 54.59 2.4293 51.77C1.2293 48.89 0.629297 45.95 0.629297 42.95H20.0693C20.0693 45.05 20.4593 46.73 21.2393 47.99C22.0793 49.25 23.1293 50.15 24.3893 50.69C25.7093 51.23 27.0293 51.5 28.3493 51.5C30.3893 51.5 32.1293 51.11 33.5693 50.33C35.0093 49.49 35.7293 47.93 35.7293 45.65C35.7293 44.39 35.3393 43.22 34.5593 42.14C33.8393 41.06 32.5493 40.19 30.6893 39.53C28.8293 38.81 26.2493 38.45 22.9493 38.45V26.84C26.1293 26.84 28.7393 26.15 30.7793 24.77C32.8793 23.39 33.9293 21.77 33.9293 19.91C33.9293 18.71 33.4493 17.75 32.4893 17.03C31.5893 16.31 30.1793 15.95 28.2593 15.95C26.2193 15.95 24.5693 16.52 23.3093 17.66C22.0493 18.8 21.4193 20.3 21.4193 22.16H3.3293C3.3293 18.14 4.3493 14.51 6.3893 11.27C8.4293 8.03 11.3093 5.45 15.0293 3.53C18.8093 1.61 23.2493 0.649997 28.3493 0.649997C33.7493 0.649997 38.3093 1.43 42.0293 2.99C45.7493 4.55 48.5693 6.68 50.4893 9.38C52.4093 12.08 53.3693 15.14 53.3693 18.56C53.3693 21.86 52.4093 24.59 50.4893 26.75C48.6293 28.91 46.0793 30.62 42.8393 31.88C46.7393 33.32 49.7693 35.33 51.9293 37.91C54.0893 40.43 55.1693 43.61 55.1693 47.45C55.1693 51.17 54.0893 54.5 51.9293 57.44C49.8293 60.32 46.7093 62.6 42.5693 64.28C38.4893 65.96 33.4493 66.8 27.4493 66.8Z" fill="#FFECA0"/>
</svg>
