<svg width="70" height="70" viewBox="0 0 70 70" fill="none" xmlns="http://www.w3.org/2000/svg">
<circle cx="35" cy="35" r="35" fill="#FFCC1A"/>
<path d="M45.7734 43.5156H32.1992C32.2969 41.2695 35.8906 40.1562 38.3516 39.2969C43.7422 37.4219 45.832 35.1953 45.832 31.3281C45.832 25.6445 40.5391 21.9922 35.5195 21.9922C29.8164 21.9922 25.6367 25.8008 25.2461 31.0352H32.1992C32.5703 29.2773 33.9375 28.418 35.5195 28.418C37.3359 28.418 38.8398 29.6094 38.8398 31.2891C38.8398 33.4961 35.9297 34.0625 33.957 34.6875C29.543 36.1914 25.3633 38.5547 25.3242 43.7109V49.9805H45.7734V43.5156Z" fill="white"/>
</svg>
