<svg width="71" height="70" viewBox="0 0 71 70" fill="none" xmlns="http://www.w3.org/2000/svg">
<circle cx="35.5" cy="35" r="35" fill="#FC8B4C"/>
<path d="M25.1289 21.9922V28.418H35.4805L29.1523 33.1641L32.4922 37.9883C33.4297 37.5195 34.3281 37.3633 35.2656 37.3633C37.4531 37.3633 39.7578 38.2812 39.7578 40.5469C39.7578 42.793 37.5117 43.4766 35.9102 43.4766C34.25 43.4766 32.3359 42.832 32.0625 40.918H25.0508C25.3047 47.0898 30.6758 50.0195 35.9102 50.0195C41.3984 50.0195 46.75 46.7773 46.75 40.9766C46.75 36.0156 42.707 32.4414 37.7852 32.4219L44.1719 28.418V21.9922H25.1289Z" fill="white"/>
</svg>
