<svg width="55" height="65" viewBox="0 0 55 65" fill="none" xmlns="http://www.w3.org/2000/svg">
<path d="M54.6149 43.2C54.6149 46.98 53.7749 50.22 52.0949 52.92C50.4149 55.62 48.1949 57.81 45.4349 59.49C42.7349 61.17 39.7649 62.4 36.5249 63.18C33.3449 63.96 30.2249 64.35 27.1649 64.35C21.3449 64.35 16.2449 63.84 11.8649 62.82C7.54488 61.74 3.67488 60.54 0.254883 59.22L5.83488 41.76C9.01488 43.56 12.0449 44.79 14.9249 45.45C17.8049 46.05 20.0849 46.35 21.7649 46.35C25.1249 46.35 27.7949 45.96 29.7749 45.18C31.7549 44.34 32.7449 42.78 32.7449 40.5C32.7449 38.94 32.1749 37.8 31.0349 37.08C29.8949 36.3 28.4849 35.79 26.8049 35.55C25.1249 35.25 23.4449 35.1 21.7649 35.1C20.3849 35.1 18.6149 35.19 16.4549 35.37C14.3549 35.49 12.1349 35.76 9.79488 36.18C7.45488 36.6 5.20488 37.23 3.04488 38.07L12.1349 -4.29153e-06H52.6349V17.1H26.4449L23.2949 25.02C25.0949 24.18 26.9849 23.64 28.9649 23.4C30.9449 23.1 33.0449 22.95 35.2649 22.95C38.4449 22.95 41.5049 23.7 44.4449 25.2C47.3849 26.7 49.8149 28.95 51.7349 31.95C53.6549 34.95 54.6149 38.7 54.6149 43.2Z" fill="#FFECA0"/>
</svg>
