<svg width="58" height="63" viewBox="0 0 58 63" fill="none" xmlns="http://www.w3.org/2000/svg">
<path d="M0.791211 -4.29153e-06H27.3412C33.5212 -4.29153e-06 38.5312 0.929996 42.3712 2.79C46.2712 4.65 49.1212 7.2 50.9212 10.44C52.7812 13.68 53.7112 17.4 53.7112 21.6C53.7112 25.74 52.7812 29.46 50.9212 32.76C49.1212 36 46.2712 38.55 42.3712 40.41L57.4912 63H34.5412L23.2912 43.2H20.5912V63H0.791211V-4.29153e-06ZM25.5412 16.65H20.5912V28.35H25.5412C28.0012 28.35 29.8612 27.84 31.1212 26.82C32.3812 25.8 33.0112 24.36 33.0112 22.5C33.0112 20.64 32.3812 19.2 31.1212 18.18C29.8612 17.16 28.0012 16.65 25.5412 16.65Z" fill="#FFECA0"/>
</svg>
