<svg width="56" height="68" viewBox="0 0 56 68" fill="none" xmlns="http://www.w3.org/2000/svg">
<path d="M13.7856 41.06C15.5856 44.24 17.7756 46.73 20.3556 48.53C22.9956 50.27 25.7256 51.14 28.5456 51.14C30.1056 51.14 31.4256 50.84 32.5056 50.24C33.5856 49.58 34.1256 48.56 34.1256 47.18C34.1256 46.34 33.8256 45.62 33.2256 45.02C32.6856 44.42 31.5756 43.73 29.8956 42.95C28.2156 42.17 25.6656 41.12 22.2456 39.8C20.7456 39.2 19.0056 38.39 17.0256 37.37C15.1056 36.35 13.2456 35.03 11.4456 33.41C9.70563 31.79 8.23563 29.81 7.03563 27.47C5.89563 25.13 5.32563 22.37 5.32563 19.19C5.32563 15.05 6.43563 11.57 8.65563 8.75C10.8756 5.93 13.8156 3.8 17.4756 2.36C21.1356 0.919997 25.1556 0.199997 29.5356 0.199997C34.2756 0.199997 38.3256 0.919997 41.6856 2.36C45.1056 3.8 47.8956 5.6 50.0556 7.76C52.2756 9.92 53.9556 12.08 55.0956 14.24L40.4256 22.34C38.9256 20.12 37.2756 18.56 35.4756 17.66C33.6756 16.7 31.9056 16.22 30.1656 16.22C28.7856 16.22 27.6456 16.46 26.7456 16.94C25.9056 17.42 25.4856 18.17 25.4856 19.19C25.4856 20.45 26.0856 21.5 27.2856 22.34C28.5456 23.12 30.1956 23.87 32.2356 24.59C34.2756 25.25 36.5256 26.03 38.9856 26.93C44.0256 28.67 47.9556 31.16 50.7756 34.4C53.6556 37.64 55.0956 41.69 55.0956 46.55C55.0956 50.03 54.3756 53.12 52.9356 55.82C51.4956 58.46 49.5456 60.65 47.0856 62.39C44.6856 64.13 41.9556 65.45 38.8956 66.35C35.8356 67.25 32.6856 67.7 29.4456 67.7C24.9456 67.7 20.7456 66.95 16.8456 65.45C13.0056 64.01 9.67563 62 6.85563 59.42C4.03563 56.84 1.90563 53.96 0.465625 50.78L13.7856 41.06Z" fill="#FFECA0"/>
</svg>
