<svg width="80" height="17" viewBox="0 0 80 17" fill="none" xmlns="http://www.w3.org/2000/svg">
<path d="M6.00445 6.94185C3.29642 6.30426 2.9207 5.43742 2.9207 4.60641C2.9207 3.2166 3.78557 2.5432 5.57202 2.5432C6.8835 2.5432 8.03902 2.84408 9.21581 3.48883L9.49937 3.64644L9.6766 3.37421C9.98852 2.90139 10.1728 2.31395 10.1728 1.79098C10.1728 1.10324 9.81129 0.702065 9.00313 0.479983C7.87597 0.143279 6.89059 0 5.59328 0C1.52415 0 0.0779803 2.50738 0.0779803 4.84998C0.0779803 7.2284 1.65175 8.7973 4.74968 9.5137C7.56405 10.1871 8.13826 11.0826 8.13826 12.2217C8.13826 14.07 6.47233 14.464 5.07578 14.464C3.68632 14.464 2.37484 14.0771 0.964115 13.2533L0.680551 13.0885L0.496233 13.3607C0.184314 13.8192 0 14.4138 0 14.9511C0 15.646 0.326099 16.0472 1.12008 16.3409C2.24015 16.7708 3.58708 17 5.01907 17C8.60614 17 11.0164 14.9798 11.0164 11.9781C11.0093 9.32743 9.46392 7.77286 6.00445 6.94185Z" fill="#236967"/>
<path d="M18.9707 0H13.583V16.5702H16.3619V11.2617H18.9707C22.7705 11.2617 24.9468 9.21281 24.9468 5.64517C24.9468 2.05605 22.7705 0 18.9707 0ZM16.369 2.43573H18.9778C21.0974 2.43573 22.1324 3.48167 22.1324 5.64517C22.1324 7.77286 21.0691 8.85461 18.9778 8.85461H16.369V2.43573Z" fill="#236967"/>
<path d="M29.9586 9.19848H35.8V6.76275H29.9586V2.43573H37.2746V0H27.1797V16.5702H37.4092V14.1344H29.9586V9.19848Z" fill="#236967"/>
<path d="M46.6256 0.121755L46.5192 -3.05176e-05H44.3216L44.2153 0.121755C41.3584 3.45298 39.3309 9.6068 38.9197 16.1833L38.8984 16.563H41.7695L41.7837 16.2191C41.8404 14.9654 41.9609 13.7404 42.124 12.5727H48.7027C48.8586 13.6759 48.9791 14.8723 49.0713 16.2191L49.0926 16.5558H51.9353L51.914 16.1761C51.5666 9.78589 49.4895 3.48164 46.6256 0.121755ZM48.2773 10.1441H42.5706C43.2015 7.20688 44.1585 4.70667 45.4204 2.70077C46.7106 4.74249 47.6677 7.2427 48.2773 10.1441Z" fill="#236967"/>
<path d="M61.1363 7.65824C63.6175 5.79562 65.3685 3.18795 65.9781 0.436999L66.0774 0H63.1071L63.0433 0.279393C62.3131 3.43152 60.1935 5.96039 57.3366 7.12811V0H54.5576V16.5702H57.3366V9.69279C57.8399 9.52086 58.3219 9.32743 58.7685 9.11251C61.1788 10.6671 62.6888 13.0742 63.2559 16.2764L63.3056 16.5702H66.283L66.2192 16.1618C65.7229 12.7661 63.7947 9.56384 61.1363 7.65824Z" fill="#236967"/>
<path d="M77.136 0L77.1077 0.322376C76.7745 3.90434 75.6261 6.68394 73.6907 8.60388C71.6987 6.69111 70.5219 3.90434 70.1887 0.322376L70.1604 0H67.2964L67.3318 0.394015C67.7146 4.57058 69.5082 8.3603 72.2729 10.8032V16.5702H75.0306V10.8032C77.8449 8.31015 79.6456 4.5276 79.9717 0.386851L80 0H77.136Z" fill="#236967"/>
</svg>
