<svg width="50" height="50" viewBox="0 0 50 50" fill="none" xmlns="http://www.w3.org/2000/svg">
<path d="M25 0C11.1947 0 0 11.1947 0 25C0 27.8692 0.488006 30.6209 1.37582 33.1844C1.9579 31.4675 2.92215 29.8565 4.28622 28.4866C5.54445 27.2284 8.34313 24.2004 9.9071 23.6065C11.571 21.0078 12.8704 19.9024 16.1042 16.6686C22.6305 10.1423 29.0922 6.02658 30.5444 7.47883C31.9967 8.93109 27.881 15.3928 21.3547 21.9191C19.9671 23.3067 18.5854 24.5767 17.2507 25.7114C18.8147 26.3053 20.2787 27.2225 21.5369 28.4807C22.7952 29.7389 23.7124 31.2088 24.3062 32.7728C25.441 31.4381 26.7168 30.0564 28.1044 28.6689C34.6308 22.1425 41.0983 18.0268 42.5447 19.4791C43.9969 20.9313 39.8812 27.393 33.3549 33.9193C30.1211 37.1531 29.0687 38.4995 26.464 40.1635C25.8702 41.7215 22.7893 44.4791 21.5369 45.7314C20.1787 47.0896 18.5736 48.048 16.8744 48.6301C19.4203 49.5061 22.1543 49.9882 24.9941 49.9882C38.8053 50 50 38.8053 50 25C50 11.1947 38.8053 0 25 0Z" fill="#236967"/>
<path d="M11.0357 35.2421C11.2592 35.2421 11.4885 35.1539 11.659 34.9834C12 34.6424 12 34.0838 11.659 33.7369C11.3238 33.4018 10.7476 33.4018 10.4125 33.7369C10.2479 33.9015 10.1538 34.125 10.1538 34.3602C10.1538 34.5953 10.2479 34.8188 10.4125 34.9834C10.583 35.1598 10.8064 35.2421 11.0357 35.2421Z" fill="#236967"/>
<path d="M16.304 38.3935C15.9747 38.0584 15.3927 38.0584 15.0575 38.3935C14.8929 38.5581 14.7988 38.7816 14.7988 39.0167C14.7988 39.2519 14.8929 39.4753 15.0575 39.64C15.2222 39.8046 15.4456 39.8987 15.6808 39.8987C15.9159 39.8987 16.1394 39.8046 16.304 39.64C16.4686 39.4753 16.5627 39.2519 16.5627 39.0167C16.5627 38.7816 16.4745 38.5581 16.304 38.3935Z" fill="#236967"/>
<path d="M8.60747 37.9173C7.95483 38.564 8.76622 40.2221 9.0308 40.716L9.07196 40.7924L9.14839 40.8336C9.40709 40.9688 10.4419 41.4979 11.2356 41.4979C11.5179 41.4979 11.7707 41.4333 11.9471 41.2569C12.5644 40.6395 12.3116 39.6459 11.265 38.5993C10.2185 37.5586 9.22482 37.3058 8.60747 37.9173Z" fill="#236967"/>
</svg>
