<svg width="94" height="17" viewBox="0 0 94 17" fill="none" xmlns="http://www.w3.org/2000/svg">
<path d="M9.94904 2.93752L10.2036 3.13249L10.3812 2.86552L10.6095 2.52238L10.7626 2.29229L10.5458 2.12088C9.44377 1.24951 7.79467 0.7 6.20166 0.7C4.47057 0.7 3.19384 1.15939 2.34598 1.91115C1.49579 2.66497 1.10765 3.68597 1.10765 4.74183C1.10765 6.21786 1.73238 7.15346 2.66601 7.77995C3.5721 8.38797 4.76565 8.70154 5.89585 8.98695C5.94263 8.99876 5.9893 9.01053 6.03585 9.02226C7.14068 9.30079 8.1752 9.5616 8.9512 10.0267C9.3486 10.2649 9.66483 10.5498 9.88294 10.9067C10.1 11.262 10.2309 11.7066 10.2309 12.2827C10.2309 13.1162 9.91656 13.8565 9.25518 14.3948C8.58734 14.9383 7.53536 15.2997 6.02229 15.2997C4.09183 15.2997 2.35661 14.4552 1.51728 13.4323L1.31012 13.1798L1.0761 13.4076L0.790742 13.6854L0.598134 13.8729L0.763431 14.0848C1.79662 15.4097 3.88498 16.3 6.04675 16.3C7.79568 16.3 9.09716 15.8522 9.96634 15.111C10.8393 14.3667 11.2468 13.3508 11.2468 12.2827L11.2468 12.2818C11.2446 11.5648 11.0903 10.9691 10.8109 10.472C10.5318 9.97552 10.1371 9.59338 9.67717 9.28957C8.76972 8.6901 7.57556 8.37709 6.44496 8.0888C6.41192 8.08037 6.37894 8.07197 6.34601 8.06358C5.22564 7.77813 4.17435 7.51029 3.38864 7.03315C2.99101 6.79168 2.67426 6.50335 2.45572 6.14299C2.23815 5.78424 2.10715 5.33647 2.10715 4.75817C2.10715 3.91496 2.42284 3.16299 3.07412 2.61669C3.73031 2.06627 4.75703 1.70033 6.21797 1.70033C7.44785 1.70033 8.86572 2.10784 9.94904 2.93752Z" fill="#216D6B" stroke="#236967" stroke-width="0.6" stroke-miterlimit="10"/>
<path d="M26.1372 3.39527L26.3697 3.62392L26.5782 3.37319L26.8228 3.07907L26.9947 2.87228L26.8079 2.67883C25.5083 1.33346 23.6624 0.7 21.7084 0.7C17.339 0.7 14.0462 4.05005 14.0462 8.5C14.0462 12.9497 17.3306 16.3 21.7084 16.3C23.6571 16.3 25.51 15.6403 26.8079 14.2967L26.9947 14.1032L26.8228 13.8964L26.5782 13.6023L26.369 13.3508L26.1365 13.5809C24.89 14.8145 23.3894 15.2997 21.7166 15.2997C17.9345 15.2997 15.0702 12.3605 15.0702 8.50817L15.0702 8.50756C15.0623 4.63923 17.9265 1.70033 21.7166 1.70033C23.3996 1.70033 24.8917 2.17047 26.1372 3.39527Z" fill="#216D6B" stroke="#236967" stroke-width="0.6" stroke-miterlimit="10"/>
<path d="M42.0355 1.05731V7.87333H32.1832V1.05731V0.757312H31.8832H31.4756H31.1756V1.05731V15.9266V16.2266H31.4756H31.8832H32.1832V15.9266V8.88182H42.0355V15.9266V16.2266H42.3355H42.7513H43.0513V15.9266V1.05731V0.757312H42.7513H42.3355H42.0355V1.05731Z" fill="#216D6B" stroke="#236967" stroke-width="0.6" stroke-miterlimit="10"/>
<path d="M55.0712 0.7C50.7018 0.7 47.409 4.05005 47.409 8.5C47.409 12.9497 50.6934 16.3 55.0712 16.3C59.449 16.3 62.7334 12.9497 62.7334 8.5C62.7334 4.04189 59.4488 0.7 55.0712 0.7ZM55.0712 15.2915C51.288 15.2915 48.4248 12.392 48.4248 8.5C48.4248 4.60796 51.288 1.7085 55.0712 1.7085C58.8548 1.7085 61.7258 4.60843 61.7258 8.5C61.7258 12.3916 58.8548 15.2915 55.0712 15.2915Z" fill="#216D6B" stroke="#236967" stroke-width="0.6" stroke-miterlimit="10"/>
<path d="M73.2363 0.7C68.8668 0.7 65.574 4.05005 65.574 8.5C65.574 12.9497 68.8585 16.3 73.2363 16.3C77.6141 16.3 80.8985 12.9497 80.8985 8.5C80.8985 4.04189 77.6138 0.7 73.2363 0.7ZM73.2363 15.2915C69.4531 15.2915 66.5898 12.392 66.5898 8.5C66.5898 4.60796 69.4531 1.7085 73.2363 1.7085C77.0198 1.7085 79.8908 4.60836 79.8908 8.49987C79.8828 12.3922 77.0192 15.2915 73.2363 15.2915Z" fill="#216D6B" stroke="#236967" stroke-width="0.6" stroke-miterlimit="10"/>
<path d="M92.5921 0.757312H92.2921V1.05731V15.2263H84.0396H83.7396V15.5263V15.9266V16.2266H84.0396H92.9998H93.2998V15.9266V1.05731V0.757312H92.9998H92.5921Z" fill="#216D6B" stroke="#236967" stroke-width="0.6" stroke-miterlimit="10"/>
</svg>
